<svg xmlns="http://www.w3.org/2000/svg" xmlns:xlink="http://www.w3.org/1999/xlink" width="55.656" height="18.336" viewBox="0 0 55.656 18.336">
  <defs>
    <linearGradient id="linear-gradient" x2="1" y2="1" gradientUnits="objectBoundingBox">
      <stop offset="0" stop-color="#125464"/>
      <stop offset="0.511" stop-color="#4067b2"/>
      <stop offset="1" stop-color="#4885a0"/>
    </linearGradient>
  </defs>
  <path id="Path_17900" data-name="Path 17900" d="M9.216.336A7.746,7.746,0,0,1,6.132-.276,7.256,7.256,0,0,1,3.624-2.064a8.261,8.261,0,0,1-1.68-2.868,11.566,11.566,0,0,1-.6-3.876,11.186,11.186,0,0,1,.624-3.864,8.677,8.677,0,0,1,1.7-2.892,7.235,7.235,0,0,1,2.544-1.812A7.934,7.934,0,0,1,9.36-18a6.122,6.122,0,0,1,2.9.672,7.657,7.657,0,0,1,2.088,1.56l-1.488,1.776a6.292,6.292,0,0,0-1.548-1.14,4.066,4.066,0,0,0-1.908-.444,4.585,4.585,0,0,0-2.7.816,5.41,5.41,0,0,0-1.824,2.3,8.782,8.782,0,0,0-.66,3.576,9.5,9.5,0,0,0,.624,3.612,5.182,5.182,0,0,0,1.776,2.34,4.57,4.57,0,0,0,2.712.816,4.419,4.419,0,0,0,2.148-.516,6.715,6.715,0,0,0,1.74-1.38l1.512,1.776A7.637,7.637,0,0,1,12.3-.324,6.958,6.958,0,0,1,9.216.336Zm12.7,0a4.1,4.1,0,0,1-2-.48,3.537,3.537,0,0,1-1.38-1.344,3.928,3.928,0,0,1-.5-2.016,3.673,3.673,0,0,1,1.884-3.3,15.073,15.073,0,0,1,6.012-1.62,4.948,4.948,0,0,0-.24-1.416,2.076,2.076,0,0,0-.756-1.044,2.54,2.54,0,0,0-1.524-.4,5.043,5.043,0,0,0-1.992.408,13.973,13.973,0,0,0-1.824.936l-1.032-1.872a15.219,15.219,0,0,1,1.536-.828,10.409,10.409,0,0,1,1.8-.648,7.813,7.813,0,0,1,1.992-.252,5.044,5.044,0,0,1,2.712.66,3.962,3.962,0,0,1,1.572,1.908,7.912,7.912,0,0,1,.516,3.024V0H26.424l-.216-1.512h-.1A9.737,9.737,0,0,1,24.168-.2,4.886,4.886,0,0,1,21.912.336Zm.84-2.208a3.37,3.37,0,0,0,1.608-.4,7.42,7.42,0,0,0,1.56-1.164V-6.648a13.764,13.764,0,0,0-3.1.636,3.963,3.963,0,0,0-1.644.984,1.929,1.929,0,0,0-.492,1.308,1.625,1.625,0,0,0,.6,1.416A2.439,2.439,0,0,0,22.752-1.872ZM37.368.336a7.212,7.212,0,0,1-2.676-.528A8.481,8.481,0,0,1,32.4-1.512l1.32-1.8A8.653,8.653,0,0,0,35.484-2.2a4.568,4.568,0,0,0,1.956.42,2.513,2.513,0,0,0,1.74-.516,1.643,1.643,0,0,0,.564-1.26,1.349,1.349,0,0,0-.42-1.008,3.735,3.735,0,0,0-1.092-.708q-.672-.3-1.392-.564a13.631,13.631,0,0,1-1.74-.8,4.36,4.36,0,0,1-1.4-1.2,2.963,2.963,0,0,1-.552-1.836,3.562,3.562,0,0,1,.564-1.992,3.864,3.864,0,0,1,1.62-1.368,5.8,5.8,0,0,1,2.52-.5,6.2,6.2,0,0,1,2.412.456,7.107,7.107,0,0,1,1.86,1.1l-1.272,1.7a8.049,8.049,0,0,0-1.416-.828,3.644,3.644,0,0,0-1.512-.324,2.409,2.409,0,0,0-1.632.468,1.492,1.492,0,0,0-.528,1.164,1.2,1.2,0,0,0,.384.912,3.361,3.361,0,0,0,1.02.624q.636.264,1.356.552a13.513,13.513,0,0,1,1.38.564,6.19,6.19,0,0,1,1.236.768,3.569,3.569,0,0,1,.9,1.08,3.24,3.24,0,0,1,.348,1.572,3.82,3.82,0,0,1-.576,2.04A3.948,3.948,0,0,1,40.128-.2,6.261,6.261,0,0,1,37.368.336Zm14.664,0a6.514,6.514,0,0,1-3.264-.828A6.049,6.049,0,0,1,46.44-2.868,7.549,7.549,0,0,1,45.576-6.6a7.861,7.861,0,0,1,.5-2.892,6.584,6.584,0,0,1,1.368-2.184,6.136,6.136,0,0,1,1.944-1.38,5.386,5.386,0,0,1,2.208-.48,5.3,5.3,0,0,1,2.952.78,4.911,4.911,0,0,1,1.824,2.184A8,8,0,0,1,57-7.3q0,.408-.036.78a3.867,3.867,0,0,1-.108.636H48.288a5.065,5.065,0,0,0,.66,2.148A3.81,3.81,0,0,0,50.364-2.34a4.022,4.022,0,0,0,2,.492,5.061,5.061,0,0,0,1.656-.264,7.075,7.075,0,0,0,1.488-.72l.96,1.752A9.789,9.789,0,0,1,54.444-.072,6.972,6.972,0,0,1,52.032.336ZM48.264-7.8H54.6a4.059,4.059,0,0,0-.756-2.616,2.658,2.658,0,0,0-2.2-.936,3.067,3.067,0,0,0-1.536.408,3.408,3.408,0,0,0-1.212,1.2A4.766,4.766,0,0,0,48.264-7.8Z" transform="translate(-1.344 18)" fill="url(#linear-gradient)"/>
</svg>
