<svg xmlns="http://www.w3.org/2000/svg" xmlns:xlink="http://www.w3.org/1999/xlink" width="36.601" height="12.058" viewBox="0 0 36.601 12.058">
  <defs>
    <linearGradient id="linear-gradient" x2="1" y2="1" gradientUnits="objectBoundingBox">
      <stop offset="0" stop-color="#072127"/>
      <stop offset="0.511" stop-color="#4067b2"/>
      <stop offset="1" stop-color="#4885a0"/>
    </linearGradient>
  </defs>
  <path id="Path_17900" data-name="Path 17900" d="M6.521-5.942a5.094,5.094,0,0,1-2.028-.4A4.772,4.772,0,0,1,2.843-7.52a5.432,5.432,0,0,1-1.1-1.886,7.606,7.606,0,0,1-.395-2.549,7.356,7.356,0,0,1,.41-2.541,5.706,5.706,0,0,1,1.121-1.9A4.758,4.758,0,0,1,4.548-17.59,5.217,5.217,0,0,1,6.616-18a4.026,4.026,0,0,1,1.91.442A5.035,5.035,0,0,1,9.9-16.532L8.92-15.364a4.138,4.138,0,0,0-1.018-.75,2.674,2.674,0,0,0-1.255-.292,3.015,3.015,0,0,0-1.776.537,3.558,3.558,0,0,0-1.2,1.515A5.775,5.775,0,0,0,3.238-12a6.25,6.25,0,0,0,.41,2.375A3.408,3.408,0,0,0,4.816-8.088,3.006,3.006,0,0,0,6.6-7.552a2.906,2.906,0,0,0,1.413-.339A4.416,4.416,0,0,0,9.157-8.8l.994,1.168a5.022,5.022,0,0,1-1.6,1.255A4.576,4.576,0,0,1,6.521-5.942Zm8.349,0a2.7,2.7,0,0,1-1.318-.316,2.326,2.326,0,0,1-.908-.884,2.583,2.583,0,0,1-.331-1.326,2.415,2.415,0,0,1,1.239-2.17A9.912,9.912,0,0,1,17.506-11.7a3.254,3.254,0,0,0-.158-.931,1.365,1.365,0,0,0-.5-.687,1.671,1.671,0,0,0-1-.26,3.317,3.317,0,0,0-1.31.268,9.189,9.189,0,0,0-1.2.616l-.679-1.231a10.009,10.009,0,0,1,1.01-.545,6.845,6.845,0,0,1,1.184-.426,5.138,5.138,0,0,1,1.31-.166,3.317,3.317,0,0,1,1.783.434,2.605,2.605,0,0,1,1.034,1.255,5.2,5.2,0,0,1,.339,1.989v5.224H17.837L17.7-7.157h-.063a6.4,6.4,0,0,1-1.278.86A3.213,3.213,0,0,1,14.87-5.942Zm.552-1.452a2.216,2.216,0,0,0,1.057-.26,4.879,4.879,0,0,0,1.026-.765v-2.115a9.051,9.051,0,0,0-2.036.418,2.606,2.606,0,0,0-1.081.647,1.269,1.269,0,0,0-.324.86,1.069,1.069,0,0,0,.395.931A1.6,1.6,0,0,0,15.422-7.394Zm9.612,1.452a4.743,4.743,0,0,1-1.76-.347,5.577,5.577,0,0,1-1.507-.868l.868-1.184a5.691,5.691,0,0,0,1.16.734,3,3,0,0,0,1.286.276,1.652,1.652,0,0,0,1.144-.339A1.081,1.081,0,0,0,26.6-8.5a.887.887,0,0,0-.276-.663,2.456,2.456,0,0,0-.718-.466q-.442-.2-.915-.371a8.964,8.964,0,0,1-1.144-.529,2.867,2.867,0,0,1-.923-.789,1.949,1.949,0,0,1-.363-1.207,2.342,2.342,0,0,1,.371-1.31,2.541,2.541,0,0,1,1.065-.9,3.816,3.816,0,0,1,1.657-.331,4.077,4.077,0,0,1,1.586.3,4.674,4.674,0,0,1,1.223.726l-.836,1.121a5.293,5.293,0,0,0-.931-.545,2.4,2.4,0,0,0-.994-.213,1.584,1.584,0,0,0-1.073.308.981.981,0,0,0-.347.765.787.787,0,0,0,.253.6,2.21,2.21,0,0,0,.671.41q.418.174.892.363a8.886,8.886,0,0,1,.908.371,4.071,4.071,0,0,1,.813.505,2.347,2.347,0,0,1,.592.71,2.131,2.131,0,0,1,.229,1.034,2.512,2.512,0,0,1-.379,1.342,2.6,2.6,0,0,1-1.1.971A4.118,4.118,0,0,1,25.034-5.942Zm9.643,0a4.283,4.283,0,0,1-2.146-.545A3.978,3.978,0,0,1,31-8.049a4.964,4.964,0,0,1-.568-2.454,5.169,5.169,0,0,1,.331-1.9,4.33,4.33,0,0,1,.9-1.436,4.035,4.035,0,0,1,1.278-.908,3.542,3.542,0,0,1,1.452-.316,3.488,3.488,0,0,1,1.941.513,3.23,3.23,0,0,1,1.2,1.436,5.264,5.264,0,0,1,.41,2.154q0,.268-.024.513a2.544,2.544,0,0,1-.071.418H32.215a3.331,3.331,0,0,0,.434,1.413,2.505,2.505,0,0,0,.931.915,2.645,2.645,0,0,0,1.318.324,3.328,3.328,0,0,0,1.089-.174,4.653,4.653,0,0,0,.979-.473L37.6-6.873a6.437,6.437,0,0,1-1.334.663A4.585,4.585,0,0,1,34.678-5.942ZM32.2-11.292h4.167a2.669,2.669,0,0,0-.5-1.72,1.748,1.748,0,0,0-1.444-.616,2.017,2.017,0,0,0-1.01.268,2.241,2.241,0,0,0-.8.789A3.134,3.134,0,0,0,32.2-11.292Z" transform="translate(-1.344 18)" fill="url(#linear-gradient)"/>
</svg>
