<svg xmlns="http://www.w3.org/2000/svg" xmlns:xlink="http://www.w3.org/1999/xlink" width="125.279" height="12.059" viewBox="0 0 125.279 12.059">
  <defs>
    <linearGradient id="linear-gradient" x1="-0.04" y1="0.352" x2="1" y2="1" gradientUnits="objectBoundingBox">
      <stop offset="0" stop-color="#072127"/>
      <stop offset="0.511" stop-color="#4067b2"/>
      <stop offset="1" stop-color="#4885a0"/>
    </linearGradient>
  </defs>
  <path id="Path_17897" data-name="Path 17897" d="M6.521-5.941a5.094,5.094,0,0,1-2.028-.4A4.772,4.772,0,0,1,2.843-7.519a5.433,5.433,0,0,1-1.1-1.886,7.607,7.607,0,0,1-.395-2.549,7.357,7.357,0,0,1,.41-2.541,5.706,5.706,0,0,1,1.121-1.9A4.759,4.759,0,0,1,4.548-17.59,5.218,5.218,0,0,1,6.616-18a4.027,4.027,0,0,1,1.91.442A5.036,5.036,0,0,1,9.9-16.532L8.92-15.364a4.138,4.138,0,0,0-1.018-.75,2.674,2.674,0,0,0-1.255-.292,3.016,3.016,0,0,0-1.776.537,3.558,3.558,0,0,0-1.2,1.515A5.776,5.776,0,0,0,3.238-12a6.25,6.25,0,0,0,.41,2.376A3.408,3.408,0,0,0,4.817-8.088,3.006,3.006,0,0,0,6.6-7.551,2.907,2.907,0,0,0,8.013-7.89,4.417,4.417,0,0,0,9.157-8.8l.994,1.168a5.022,5.022,0,0,1-1.6,1.255A4.576,4.576,0,0,1,6.521-5.941Zm8.618,0a2.337,2.337,0,0,1-2.036-.9,4.3,4.3,0,0,1-.647-2.541v-5.477h1.831V-9.6a2.818,2.818,0,0,0,.347,1.594,1.261,1.261,0,0,0,1.1.489,1.926,1.926,0,0,0,1.073-.308,4.481,4.481,0,0,0,1.01-.987v-6.045h1.831v8.7h-1.5l-.142-1.31h-.047a6.1,6.1,0,0,1-1.263,1.1A2.826,2.826,0,0,1,15.139-5.941Zm10.37,0a4.743,4.743,0,0,1-1.76-.347,5.578,5.578,0,0,1-1.507-.868L23.11-8.34a5.691,5.691,0,0,0,1.16.734,3,3,0,0,0,1.286.276A1.653,1.653,0,0,0,26.7-7.669a1.081,1.081,0,0,0,.371-.829.887.887,0,0,0-.276-.663,2.456,2.456,0,0,0-.718-.466q-.442-.2-.915-.371a8.965,8.965,0,0,1-1.144-.529,2.867,2.867,0,0,1-.923-.789,1.949,1.949,0,0,1-.363-1.207,2.343,2.343,0,0,1,.371-1.31,2.541,2.541,0,0,1,1.065-.9,3.817,3.817,0,0,1,1.657-.331,4.077,4.077,0,0,1,1.586.3,4.674,4.674,0,0,1,1.223.726L27.8-12.918a5.294,5.294,0,0,0-.931-.545,2.4,2.4,0,0,0-.994-.213,1.585,1.585,0,0,0-1.073.308.981.981,0,0,0-.347.766.787.787,0,0,0,.253.6,2.21,2.21,0,0,0,.671.41q.418.174.892.363a8.887,8.887,0,0,1,.908.371,4.071,4.071,0,0,1,.813.505,2.347,2.347,0,0,1,.592.71,2.131,2.131,0,0,1,.229,1.034,2.512,2.512,0,0,1-.379,1.342,2.6,2.6,0,0,1-1.1.971A4.118,4.118,0,0,1,25.509-5.941Zm8.523,0a2.753,2.753,0,0,1-1.555-.387A2.147,2.147,0,0,1,31.65-7.4,4.634,4.634,0,0,1,31.4-9v-4.388H30.134v-1.357l1.357-.11.205-2.4h1.515v2.4h2.257v1.468H33.212v4.4a1.949,1.949,0,0,0,.3,1.176,1.14,1.14,0,0,0,.979.4,1.957,1.957,0,0,0,.474-.063,3.13,3.13,0,0,0,.442-.142l.331,1.342q-.347.11-.781.221A3.732,3.732,0,0,1,34.033-5.941Zm7.276,0A3.946,3.946,0,0,1,39.3-6.485a4.086,4.086,0,0,1-1.515-1.563,4.909,4.909,0,0,1-.576-2.454,4.944,4.944,0,0,1,.576-2.47A4.027,4.027,0,0,1,39.3-14.527a3.991,3.991,0,0,1,2.012-.537,3.959,3.959,0,0,1,1.531.308,3.892,3.892,0,0,1,1.31.892,4.241,4.241,0,0,1,.9,1.428,5.263,5.263,0,0,1,.331,1.934,4.909,4.909,0,0,1-.576,2.454,4.125,4.125,0,0,1-1.5,1.563A3.862,3.862,0,0,1,41.309-5.941Zm0-1.515a1.885,1.885,0,0,0,1.176-.379A2.4,2.4,0,0,0,43.251-8.9a4.387,4.387,0,0,0,.268-1.6,4.387,4.387,0,0,0-.268-1.6,2.452,2.452,0,0,0-.766-1.073,1.859,1.859,0,0,0-1.176-.387,1.883,1.883,0,0,0-1.192.387,2.452,2.452,0,0,0-.766,1.073,4.387,4.387,0,0,0-.268,1.6,4.387,4.387,0,0,0,.268,1.6,2.4,2.4,0,0,0,.766,1.065A1.909,1.909,0,0,0,41.309-7.456Zm7.008,1.294v-8.7H49.8l.158,1.231h.032a6.516,6.516,0,0,1,1.223-1.018,2.684,2.684,0,0,1,1.476-.418,2.528,2.528,0,0,1,1.531.418,2.508,2.508,0,0,1,.852,1.176,7.322,7.322,0,0,1,1.334-1.144,2.669,2.669,0,0,1,1.492-.45,2.332,2.332,0,0,1,2.012.892,4.253,4.253,0,0,1,.655,2.549v5.461H58.735V-11.4a2.813,2.813,0,0,0-.347-1.6,1.252,1.252,0,0,0-1.089-.481,1.821,1.821,0,0,0-.923.284,4.755,4.755,0,0,0-1.034.884v6.156H53.526V-11.4a2.813,2.813,0,0,0-.347-1.6,1.269,1.269,0,0,0-1.1-.481,1.84,1.84,0,0,0-.915.284,4.394,4.394,0,0,0-1.026.884v6.156Zm19.3.221a4.284,4.284,0,0,1-2.147-.545,3.978,3.978,0,0,1-1.531-1.563,4.964,4.964,0,0,1-.568-2.454,5.17,5.17,0,0,1,.331-1.9,4.33,4.33,0,0,1,.9-1.436,4.035,4.035,0,0,1,1.279-.908,3.542,3.542,0,0,1,1.452-.316,3.489,3.489,0,0,1,1.941.513,3.23,3.23,0,0,1,1.2,1.436,5.265,5.265,0,0,1,.41,2.155q0,.268-.024.513a2.543,2.543,0,0,1-.071.418H65.159a3.331,3.331,0,0,0,.434,1.413,2.505,2.505,0,0,0,.931.915,2.645,2.645,0,0,0,1.318.324,3.328,3.328,0,0,0,1.089-.174,4.653,4.653,0,0,0,.979-.474l.631,1.152a6.438,6.438,0,0,1-1.334.663A4.585,4.585,0,0,1,67.622-5.941Zm-2.478-5.351H69.31a2.669,2.669,0,0,0-.5-1.72,1.748,1.748,0,0,0-1.444-.616,2.017,2.017,0,0,0-1.01.268,2.241,2.241,0,0,0-.8.789A3.134,3.134,0,0,0,65.143-11.292Zm8.571,5.13v-8.7H75.2l.158,1.563h.032a3.988,3.988,0,0,1,1.121-1.3,2.29,2.29,0,0,1,1.357-.466,2.6,2.6,0,0,1,.537.047,2.847,2.847,0,0,1,.426.126L78.513-13.3a2.846,2.846,0,0,0-.426-.11,2.836,2.836,0,0,0-.458-.032,1.924,1.924,0,0,0-1.1.418,3.175,3.175,0,0,0-.994,1.46v5.4Zm11.743,0V-17.795h2.115l2.115,5.887q.205.568.395,1.16t.379,1.176h.079q.205-.584.387-1.176t.371-1.16l2.084-5.887h2.131V-6.162h-1.7v-5.745q0-.521.039-1.152t.095-1.279q.055-.647.118-1.168h-.079l-.931,2.683-2.02,5.54H89.893l-2.036-5.54-.931-2.683h-.063q.063.521.118,1.168t.095,1.279q.039.631.039,1.152v5.745Zm17.363.221a4.284,4.284,0,0,1-2.147-.545,3.978,3.978,0,0,1-1.531-1.563,4.964,4.964,0,0,1-.568-2.454,5.17,5.17,0,0,1,.331-1.9,4.33,4.33,0,0,1,.9-1.436,4.035,4.035,0,0,1,1.279-.908,3.542,3.542,0,0,1,1.452-.316,3.489,3.489,0,0,1,1.941.513,3.23,3.23,0,0,1,1.2,1.436,5.264,5.264,0,0,1,.41,2.155q0,.268-.024.513a2.545,2.545,0,0,1-.071.418h-5.635a3.331,3.331,0,0,0,.434,1.413,2.505,2.505,0,0,0,.931.915,2.645,2.645,0,0,0,1.318.324,3.329,3.329,0,0,0,1.089-.174,4.653,4.653,0,0,0,.979-.474l.631,1.152a6.438,6.438,0,0,1-1.334.663A4.585,4.585,0,0,1,102.82-5.941Zm-2.478-5.351h4.167a2.669,2.669,0,0,0-.5-1.72,1.748,1.748,0,0,0-1.444-.616,2.017,2.017,0,0,0-1.01.268,2.241,2.241,0,0,0-.8.789A3.134,3.134,0,0,0,100.342-11.292Zm8.571,5.13v-8.7H110.4l.158,1.215h.032a7.112,7.112,0,0,1,1.294-1,3,3,0,0,1,1.578-.418,2.324,2.324,0,0,1,2.028.892,4.333,4.333,0,0,1,.639,2.549v5.461h-1.815V-11.4a2.813,2.813,0,0,0-.347-1.6,1.287,1.287,0,0,0-1.121-.481,1.963,1.963,0,0,0-1.065.292,6.254,6.254,0,0,0-1.05.876v6.156Zm13.2.221a2.337,2.337,0,0,1-2.036-.9,4.3,4.3,0,0,1-.647-2.541v-5.477h1.831V-9.6a2.818,2.818,0,0,0,.347,1.594,1.261,1.261,0,0,0,1.1.489,1.926,1.926,0,0,0,1.073-.308,4.481,4.481,0,0,0,1.01-.987v-6.045h1.831v8.7h-1.5l-.142-1.31h-.047a6.1,6.1,0,0,1-1.263,1.1A2.826,2.826,0,0,1,122.108-5.941Z" transform="translate(-1.344 18)" fill="url(#linear-gradient)"/>
</svg>
