<svg xmlns="http://www.w3.org/2000/svg" xmlns:xlink="http://www.w3.org/1999/xlink" width="80.088" height="18.024" viewBox="0 0 80.088 18.024">
  <defs>
    <linearGradient id="linear-gradient" x2="1" y2="1" gradientUnits="objectBoundingBox">
      <stop offset="0" stop-color="#32859a"/>
      <stop offset="0.511" stop-color="#5f86d3"/>
      <stop offset="1" stop-color="#54b2db"/>
    </linearGradient>
  </defs>
  <path id="Path_17901" data-name="Path 17901" d="M0,0,5.856-17.688H9.072L14.928,0H11.976L9.12-9.6q-.432-1.44-.84-2.916T7.464-15.48h-.1q-.384,1.512-.8,2.976T5.712-9.6L2.856,0ZM3.312-5.016V-7.224h8.256v2.208ZM23.592.336a6.252,6.252,0,0,1-3.216-.828A5.988,5.988,0,0,1,18.12-2.868,7.724,7.724,0,0,1,17.28-6.6a7.278,7.278,0,0,1,.912-3.756,6.244,6.244,0,0,1,2.4-2.364,6.582,6.582,0,0,1,3.216-.816,5.227,5.227,0,0,1,2.208.432,6.574,6.574,0,0,1,1.656,1.08l-1.368,1.8a4.6,4.6,0,0,0-1.1-.756,2.85,2.85,0,0,0-1.248-.276,3.415,3.415,0,0,0-1.968.588,3.967,3.967,0,0,0-1.356,1.632A5.659,5.659,0,0,0,20.136-6.6a5.78,5.78,0,0,0,.48,2.436,3.867,3.867,0,0,0,1.32,1.62,3.314,3.314,0,0,0,1.92.576,3.537,3.537,0,0,0,1.56-.348,6.316,6.316,0,0,0,1.32-.852L27.888-1.32a6.369,6.369,0,0,1-2.04,1.236A6.427,6.427,0,0,1,23.592.336Zm12.888,0a6.252,6.252,0,0,1-3.216-.828,5.988,5.988,0,0,1-2.256-2.376,7.724,7.724,0,0,1-.84-3.732,7.278,7.278,0,0,1,.912-3.756,6.244,6.244,0,0,1,2.4-2.364,6.582,6.582,0,0,1,3.216-.816A5.227,5.227,0,0,1,38.9-13.1a6.574,6.574,0,0,1,1.656,1.08l-1.368,1.8a4.6,4.6,0,0,0-1.1-.756,2.85,2.85,0,0,0-1.248-.276,3.415,3.415,0,0,0-1.968.588,3.967,3.967,0,0,0-1.356,1.632A5.659,5.659,0,0,0,33.024-6.6a5.78,5.78,0,0,0,.48,2.436,3.867,3.867,0,0,0,1.32,1.62,3.314,3.314,0,0,0,1.92.576,3.537,3.537,0,0,0,1.56-.348,6.316,6.316,0,0,0,1.32-.852L40.776-1.32a6.369,6.369,0,0,1-2.04,1.236A6.427,6.427,0,0,1,36.48.336Zm13.032,0a6.514,6.514,0,0,1-3.264-.828A6.049,6.049,0,0,1,43.92-2.868,7.549,7.549,0,0,1,43.056-6.6a7.861,7.861,0,0,1,.5-2.892,6.584,6.584,0,0,1,1.368-2.184,6.136,6.136,0,0,1,1.944-1.38,5.386,5.386,0,0,1,2.208-.48,5.3,5.3,0,0,1,2.952.78,4.911,4.911,0,0,1,1.824,2.184A8,8,0,0,1,54.48-7.3q0,.408-.036.78a3.867,3.867,0,0,1-.108.636H45.768a5.065,5.065,0,0,0,.66,2.148A3.81,3.81,0,0,0,47.844-2.34a4.022,4.022,0,0,0,2,.492A5.061,5.061,0,0,0,51.5-2.112a7.075,7.075,0,0,0,1.488-.72l.96,1.752A9.789,9.789,0,0,1,51.924-.072,6.972,6.972,0,0,1,49.512.336ZM45.744-7.8H52.08a4.059,4.059,0,0,0-.756-2.616,2.658,2.658,0,0,0-2.2-.936,3.067,3.067,0,0,0-1.536.408,3.408,3.408,0,0,0-1.212,1.2A4.766,4.766,0,0,0,45.744-7.8ZM62.352.336a7.212,7.212,0,0,1-2.676-.528,8.481,8.481,0,0,1-2.292-1.32l1.32-1.8A8.653,8.653,0,0,0,60.468-2.2a4.568,4.568,0,0,0,1.956.42,2.513,2.513,0,0,0,1.74-.516,1.643,1.643,0,0,0,.564-1.26,1.349,1.349,0,0,0-.42-1.008,3.735,3.735,0,0,0-1.092-.708q-.672-.3-1.392-.564a13.631,13.631,0,0,1-1.74-.8,4.36,4.36,0,0,1-1.4-1.2,2.963,2.963,0,0,1-.552-1.836,3.562,3.562,0,0,1,.564-1.992,3.864,3.864,0,0,1,1.62-1.368,5.8,5.8,0,0,1,2.52-.5,6.2,6.2,0,0,1,2.412.456,7.107,7.107,0,0,1,1.86,1.1l-1.272,1.7a8.049,8.049,0,0,0-1.416-.828,3.644,3.644,0,0,0-1.512-.324,2.409,2.409,0,0,0-1.632.468,1.492,1.492,0,0,0-.528,1.164,1.2,1.2,0,0,0,.384.912,3.361,3.361,0,0,0,1.02.624q.636.264,1.356.552a13.513,13.513,0,0,1,1.38.564,6.19,6.19,0,0,1,1.236.768,3.569,3.569,0,0,1,.9,1.08,3.24,3.24,0,0,1,.348,1.572,3.82,3.82,0,0,1-.576,2.04A3.948,3.948,0,0,1,65.112-.2,6.261,6.261,0,0,1,62.352.336Zm12.72,0A7.212,7.212,0,0,1,72.4-.192,8.481,8.481,0,0,1,70.1-1.512l1.32-1.8A8.653,8.653,0,0,0,73.188-2.2a4.568,4.568,0,0,0,1.956.42,2.513,2.513,0,0,0,1.74-.516,1.643,1.643,0,0,0,.564-1.26,1.349,1.349,0,0,0-.42-1.008,3.735,3.735,0,0,0-1.092-.708q-.672-.3-1.392-.564a13.631,13.631,0,0,1-1.74-.8,4.36,4.36,0,0,1-1.4-1.2,2.963,2.963,0,0,1-.552-1.836,3.562,3.562,0,0,1,.564-1.992,3.864,3.864,0,0,1,1.62-1.368,5.8,5.8,0,0,1,2.52-.5,6.2,6.2,0,0,1,2.412.456,7.107,7.107,0,0,1,1.86,1.1l-1.272,1.7a8.049,8.049,0,0,0-1.416-.828,3.644,3.644,0,0,0-1.512-.324,2.409,2.409,0,0,0-1.632.468,1.492,1.492,0,0,0-.528,1.164,1.2,1.2,0,0,0,.384.912,3.361,3.361,0,0,0,1.02.624q.636.264,1.356.552a13.513,13.513,0,0,1,1.38.564,6.19,6.19,0,0,1,1.236.768,3.569,3.569,0,0,1,.9,1.08,3.24,3.24,0,0,1,.348,1.572,3.82,3.82,0,0,1-.576,2.04A3.948,3.948,0,0,1,77.832-.2,6.261,6.261,0,0,1,75.072.336Z" transform="translate(0 17.688)" fill="url(#linear-gradient)"/>
</svg>
