<svg xmlns="http://www.w3.org/2000/svg" xmlns:xlink="http://www.w3.org/1999/xlink" width="190.488" height="18.336" viewBox="0 0 190.488 18.336">
  <defs>
    <linearGradient id="linear-gradient" x1="-0.04" y1="0.352" x2="1" y2="1" gradientUnits="objectBoundingBox">
      <stop offset="0" stop-color="#072127"/>
      <stop offset="0.511" stop-color="#4067b2"/>
      <stop offset="1" stop-color="#4885a0"/>
    </linearGradient>
  </defs>
  <path id="Path_17897" data-name="Path 17897" d="M9.216.336A7.746,7.746,0,0,1,6.132-.276,7.256,7.256,0,0,1,3.624-2.064a8.261,8.261,0,0,1-1.68-2.868,11.566,11.566,0,0,1-.6-3.876,11.186,11.186,0,0,1,.624-3.864,8.677,8.677,0,0,1,1.7-2.892,7.235,7.235,0,0,1,2.544-1.812A7.934,7.934,0,0,1,9.36-18a6.122,6.122,0,0,1,2.9.672,7.657,7.657,0,0,1,2.088,1.56l-1.488,1.776a6.292,6.292,0,0,0-1.548-1.14,4.066,4.066,0,0,0-1.908-.444,4.585,4.585,0,0,0-2.7.816,5.41,5.41,0,0,0-1.824,2.3,8.782,8.782,0,0,0-.66,3.576,9.5,9.5,0,0,0,.624,3.612,5.182,5.182,0,0,0,1.776,2.34,4.57,4.57,0,0,0,2.712.816,4.419,4.419,0,0,0,2.148-.516,6.715,6.715,0,0,0,1.74-1.38l1.512,1.776A7.637,7.637,0,0,1,12.3-.324,6.958,6.958,0,0,1,9.216.336Zm13.1,0a3.554,3.554,0,0,1-3.1-1.368A6.537,6.537,0,0,1,18.24-4.9v-8.328h2.784v7.992a4.285,4.285,0,0,0,.528,2.424,1.917,1.917,0,0,0,1.68.744,2.929,2.929,0,0,0,1.632-.468,6.814,6.814,0,0,0,1.536-1.5v-9.192h2.784V0H26.9l-.216-1.992h-.072A9.273,9.273,0,0,1,24.7-.312,4.3,4.3,0,0,1,22.32.336Zm15.768,0a7.212,7.212,0,0,1-2.676-.528,8.481,8.481,0,0,1-2.292-1.32l1.32-1.8A8.653,8.653,0,0,0,36.2-2.2a4.568,4.568,0,0,0,1.956.42,2.513,2.513,0,0,0,1.74-.516,1.643,1.643,0,0,0,.564-1.26,1.349,1.349,0,0,0-.42-1.008,3.735,3.735,0,0,0-1.092-.708q-.672-.3-1.392-.564a13.631,13.631,0,0,1-1.74-.8,4.36,4.36,0,0,1-1.4-1.2,2.963,2.963,0,0,1-.552-1.836,3.562,3.562,0,0,1,.564-1.992,3.864,3.864,0,0,1,1.62-1.368,5.8,5.8,0,0,1,2.52-.5,6.2,6.2,0,0,1,2.412.456,7.107,7.107,0,0,1,1.86,1.1l-1.272,1.7a8.049,8.049,0,0,0-1.416-.828,3.644,3.644,0,0,0-1.512-.324,2.409,2.409,0,0,0-1.632.468,1.492,1.492,0,0,0-.528,1.164,1.2,1.2,0,0,0,.384.912,3.361,3.361,0,0,0,1.02.624q.636.264,1.356.552a13.512,13.512,0,0,1,1.38.564,6.19,6.19,0,0,1,1.236.768,3.569,3.569,0,0,1,.9,1.08A3.24,3.24,0,0,1,43.1-3.72a3.82,3.82,0,0,1-.576,2.04A3.948,3.948,0,0,1,40.848-.2,6.261,6.261,0,0,1,38.088.336Zm12.96,0a4.186,4.186,0,0,1-2.364-.588,3.264,3.264,0,0,1-1.26-1.632A7.046,7.046,0,0,1,47.04-4.32v-6.672H45.12v-2.064l2.064-.168.312-3.648h2.3v3.648h3.432v2.232H49.8v6.7a2.963,2.963,0,0,0,.456,1.788,1.734,1.734,0,0,0,1.488.612,2.976,2.976,0,0,0,.72-.1,4.76,4.76,0,0,0,.672-.216l.5,2.04Q53.112,0,52.452.168A5.674,5.674,0,0,1,51.048.336Zm11.064,0a6,6,0,0,1-3.06-.828,6.212,6.212,0,0,1-2.3-2.376A7.465,7.465,0,0,1,55.872-6.6a7.517,7.517,0,0,1,.876-3.756,6.123,6.123,0,0,1,2.3-2.364,6.068,6.068,0,0,1,3.06-.816,6.019,6.019,0,0,1,2.328.468,5.918,5.918,0,0,1,1.992,1.356A6.448,6.448,0,0,1,67.8-9.54a8,8,0,0,1,.5,2.94,7.465,7.465,0,0,1-.876,3.732,6.272,6.272,0,0,1-2.28,2.376A5.873,5.873,0,0,1,62.112.336Zm0-2.3A2.866,2.866,0,0,0,63.9-2.544a3.643,3.643,0,0,0,1.164-1.62A6.67,6.67,0,0,0,65.472-6.6a6.67,6.67,0,0,0-.408-2.436A3.728,3.728,0,0,0,63.9-10.668a2.827,2.827,0,0,0-1.788-.588,2.863,2.863,0,0,0-1.812.588,3.728,3.728,0,0,0-1.164,1.632A6.67,6.67,0,0,0,58.728-6.6a6.67,6.67,0,0,0,.408,2.436A3.643,3.643,0,0,0,60.3-2.544,2.9,2.9,0,0,0,62.112-1.968ZM72.768,0V-13.224h2.256l.24,1.872h.048a9.907,9.907,0,0,1,1.86-1.548,4.081,4.081,0,0,1,2.244-.636,3.844,3.844,0,0,1,2.328.636,3.813,3.813,0,0,1,1.3,1.788,11.134,11.134,0,0,1,2.028-1.74,4.058,4.058,0,0,1,2.268-.684A3.546,3.546,0,0,1,90.4-12.18a6.467,6.467,0,0,1,1,3.876V0H88.608V-7.968A4.277,4.277,0,0,0,88.08-10.4a1.9,1.9,0,0,0-1.656-.732,2.769,2.769,0,0,0-1.4.432A7.23,7.23,0,0,0,83.448-9.36V0h-2.76V-7.968A4.277,4.277,0,0,0,80.16-10.4a1.93,1.93,0,0,0-1.68-.732,2.8,2.8,0,0,0-1.392.432,6.682,6.682,0,0,0-1.56,1.344V0ZM102.12.336a6.514,6.514,0,0,1-3.264-.828,6.049,6.049,0,0,1-2.328-2.376A7.549,7.549,0,0,1,95.664-6.6a7.861,7.861,0,0,1,.5-2.892,6.584,6.584,0,0,1,1.368-2.184,6.136,6.136,0,0,1,1.944-1.38,5.386,5.386,0,0,1,2.208-.48,5.3,5.3,0,0,1,2.952.78,4.911,4.911,0,0,1,1.824,2.184,8,8,0,0,1,.624,3.276q0,.408-.036.78a3.868,3.868,0,0,1-.108.636H98.376a5.065,5.065,0,0,0,.66,2.148,3.81,3.81,0,0,0,1.416,1.392,4.022,4.022,0,0,0,2,.492,5.061,5.061,0,0,0,1.656-.264,7.075,7.075,0,0,0,1.488-.72l.96,1.752a9.789,9.789,0,0,1-2.028,1.008A6.972,6.972,0,0,1,102.12.336ZM98.352-7.8h6.336a4.059,4.059,0,0,0-.756-2.616,2.658,2.658,0,0,0-2.2-.936,3.067,3.067,0,0,0-1.536.408,3.408,3.408,0,0,0-1.212,1.2A4.766,4.766,0,0,0,98.352-7.8ZM111.384,0V-13.224h2.256l.24,2.376h.048a6.064,6.064,0,0,1,1.7-1.98,3.481,3.481,0,0,1,2.064-.708,3.959,3.959,0,0,1,.816.072,4.328,4.328,0,0,1,.648.192l-.48,2.424a4.328,4.328,0,0,0-.648-.168,4.312,4.312,0,0,0-.7-.048,2.926,2.926,0,0,0-1.68.636,4.827,4.827,0,0,0-1.512,2.22V0ZM129.24,0V-17.688h3.216l3.216,8.952q.312.864.6,1.764t.576,1.788h.12q.312-.888.588-1.788t.564-1.764l3.168-8.952h3.24V0h-2.592V-8.736q0-.792.06-1.752t.144-1.944q.084-.984.18-1.776h-.12l-1.416,4.08L137.712-1.7h-1.728l-3.1-8.424-1.416-4.08h-.1q.1.792.18,1.776t.144,1.944q.06.96.06,1.752V0Zm26.4.336a6.514,6.514,0,0,1-3.264-.828,6.049,6.049,0,0,1-2.328-2.376,7.548,7.548,0,0,1-.864-3.732,7.861,7.861,0,0,1,.5-2.892,6.584,6.584,0,0,1,1.368-2.184A6.136,6.136,0,0,1,153-13.056a5.386,5.386,0,0,1,2.208-.48,5.3,5.3,0,0,1,2.952.78,4.911,4.911,0,0,1,1.824,2.184,8,8,0,0,1,.624,3.276q0,.408-.036.78a3.869,3.869,0,0,1-.108.636H151.9a5.065,5.065,0,0,0,.66,2.148,3.81,3.81,0,0,0,1.416,1.392,4.022,4.022,0,0,0,2,.492,5.061,5.061,0,0,0,1.656-.264,7.075,7.075,0,0,0,1.488-.72l.96,1.752a9.789,9.789,0,0,1-2.028,1.008A6.972,6.972,0,0,1,155.64.336ZM151.872-7.8h6.336a4.059,4.059,0,0,0-.756-2.616,2.657,2.657,0,0,0-2.2-.936,3.067,3.067,0,0,0-1.536.408,3.408,3.408,0,0,0-1.212,1.2A4.765,4.765,0,0,0,151.872-7.8ZM164.9,0V-13.224h2.256l.24,1.848h.048a10.814,10.814,0,0,1,1.968-1.524,4.56,4.56,0,0,1,2.4-.636A3.534,3.534,0,0,1,174.9-12.18a6.588,6.588,0,0,1,.972,3.876V0h-2.76V-7.968a4.277,4.277,0,0,0-.528-2.436,1.957,1.957,0,0,0-1.7-.732,2.985,2.985,0,0,0-1.62.444,9.51,9.51,0,0,0-1.6,1.332V0Zm20.064.336a3.554,3.554,0,0,1-3.1-1.368,6.537,6.537,0,0,1-.984-3.864v-8.328h2.784v7.992a4.285,4.285,0,0,0,.528,2.424,1.917,1.917,0,0,0,1.68.744,2.929,2.929,0,0,0,1.632-.468,6.814,6.814,0,0,0,1.536-1.5v-9.192h2.784V0h-2.28l-.216-1.992h-.072a9.273,9.273,0,0,1-1.92,1.68A4.3,4.3,0,0,1,184.968.336Z" transform="translate(-1.344 18)" fill="url(#linear-gradient)"/>
</svg>
