<svg xmlns="http://www.w3.org/2000/svg" xmlns:xlink="http://www.w3.org/1999/xlink" width="88.332" height="12.058" viewBox="0 0 88.332 12.058">
  <defs>
    <linearGradient id="linear-gradient" y1="0.198" x2="1" y2="1" gradientUnits="objectBoundingBox">
      <stop offset="0" stop-color="#072127"/>
      <stop offset="0.511" stop-color="#4067b2"/>
      <stop offset="1" stop-color="#4885a0"/>
    </linearGradient>
  </defs>
  <path id="Path_18104" data-name="Path 18104" d="M6.152-6.926a4.483,4.483,0,0,1-2.494-.7,4.727,4.727,0,0,1-1.7-2,7.089,7.089,0,0,1-.614-3.063,6.928,6.928,0,0,1,.614-3.048,4.607,4.607,0,0,1,1.7-1.947,4.592,4.592,0,0,1,2.494-.682,4.582,4.582,0,0,1,2.5.682,4.625,4.625,0,0,1,1.693,1.947,6.928,6.928,0,0,1,.614,3.048,7.089,7.089,0,0,1-.614,3.063,4.747,4.747,0,0,1-1.693,2A4.473,4.473,0,0,1,6.152-6.926Zm0-1.528a2.542,2.542,0,0,0,1.6-.524A3.36,3.36,0,0,0,8.8-10.453a6.1,6.1,0,0,0,.374-2.239A5.978,5.978,0,0,0,8.8-14.917a3.21,3.21,0,0,0-1.056-1.438,2.618,2.618,0,0,0-1.6-.5,2.618,2.618,0,0,0-1.6.5,3.162,3.162,0,0,0-1.049,1.438,6.088,6.088,0,0,0-.367,2.224,6.21,6.21,0,0,0,.367,2.239A3.309,3.309,0,0,0,4.557-8.978,2.542,2.542,0,0,0,6.152-8.454ZM16.278-6.926a2.218,2.218,0,0,1-1.932-.854,4.08,4.08,0,0,1-.614-2.412v-5.2h1.738V-10.4a2.674,2.674,0,0,0,.33,1.513,1.2,1.2,0,0,0,1.049.464,1.828,1.828,0,0,0,1.019-.292,4.253,4.253,0,0,0,.959-.936v-5.737h1.738v8.254H19.139L19-8.379h-.045a5.787,5.787,0,0,1-1.2,1.049A2.682,2.682,0,0,1,16.278-6.926Zm7.609-.21v-8.254H25.3l.15,1.483h.03a3.785,3.785,0,0,1,1.064-1.236,2.173,2.173,0,0,1,1.288-.442,2.471,2.471,0,0,1,.509.045,2.7,2.7,0,0,1,.4.12l-.3,1.513a2.7,2.7,0,0,0-.4-.1,2.691,2.691,0,0,0-.434-.03,1.826,1.826,0,0,0-1.049.4,3.013,3.013,0,0,0-.944,1.386v5.123Zm14.29.21a5.387,5.387,0,0,1-2.15-.434,5.626,5.626,0,0,1-1.775-1.2l1.019-1.2a4.932,4.932,0,0,0,1.371.944,3.7,3.7,0,0,0,1.58.359,2.347,2.347,0,0,0,1.52-.434,1.384,1.384,0,0,0,.532-1.123,1.352,1.352,0,0,0-.225-.816,1.786,1.786,0,0,0-.622-.517q-.4-.21-.906-.434l-1.528-.659a5.437,5.437,0,0,1-1.056-.592,3.046,3.046,0,0,1-.854-.929,2.619,2.619,0,0,1-.337-1.371,2.724,2.724,0,0,1,.464-1.558A3.174,3.174,0,0,1,36.5-17.973a4.261,4.261,0,0,1,1.872-.4A4.605,4.605,0,0,1,40.215-18,4.461,4.461,0,0,1,41.7-16.977l-.884,1.108a4.323,4.323,0,0,0-1.116-.726,3.239,3.239,0,0,0-1.326-.262,2.152,2.152,0,0,0-1.348.382,1.23,1.23,0,0,0-.494,1.026,1.191,1.191,0,0,0,.255.786,1.988,1.988,0,0,0,.667.509q.412.2.846.382l1.513.644a5.074,5.074,0,0,1,1.168.659,2.77,2.77,0,0,1,.794.944,3,3,0,0,1,.285,1.378,2.928,2.928,0,0,1-.464,1.61A3.326,3.326,0,0,1,40.26-7.368,4.545,4.545,0,0,1,38.178-6.926Zm10.006,0a4.065,4.065,0,0,1-2.037-.517,3.775,3.775,0,0,1-1.453-1.483,4.711,4.711,0,0,1-.539-2.329,4.906,4.906,0,0,1,.315-1.8,4.109,4.109,0,0,1,.854-1.363,3.829,3.829,0,0,1,1.213-.861,3.362,3.362,0,0,1,1.378-.3,3.311,3.311,0,0,1,1.842.487A3.065,3.065,0,0,1,50.9-13.734a5,5,0,0,1,.389,2.045q0,.255-.022.487a2.414,2.414,0,0,1-.067.4H45.847a3.161,3.161,0,0,0,.412,1.341,2.378,2.378,0,0,0,.884.869,2.51,2.51,0,0,0,1.251.307,3.159,3.159,0,0,0,1.034-.165,4.416,4.416,0,0,0,.929-.449l.6,1.093a6.109,6.109,0,0,1-1.266.629A4.351,4.351,0,0,1,48.184-6.926ZM45.832-12h3.955a2.533,2.533,0,0,0-.472-1.633,1.659,1.659,0,0,0-1.371-.584,1.914,1.914,0,0,0-.959.255,2.127,2.127,0,0,0-.756.749A2.974,2.974,0,0,0,45.832-12Zm8.134,4.868v-8.254h1.408l.15,1.483h.03a3.785,3.785,0,0,1,1.064-1.236,2.173,2.173,0,0,1,1.288-.442,2.471,2.471,0,0,1,.509.045,2.7,2.7,0,0,1,.4.12l-.3,1.513a2.7,2.7,0,0,0-.4-.1,2.691,2.691,0,0,0-.434-.03,1.826,1.826,0,0,0-1.049.4,3.013,3.013,0,0,0-.944,1.386v5.123Zm8.943,0-2.891-8.254H61.77l1.408,4.449q.18.6.359,1.221t.36,1.236h.06q.195-.614.374-1.236t.345-1.221l1.408-4.449h1.678L64.931-7.135Zm7.115,0v-8.254h1.723v8.254Zm.869-9.781a1.079,1.079,0,0,1-.786-.285,1.018,1.018,0,0,1-.292-.764.98.98,0,0,1,.292-.734,1.079,1.079,0,0,1,.786-.285,1.064,1.064,0,0,1,.764.285.967.967,0,0,1,.3.734,1,1,0,0,1-.3.764A1.064,1.064,0,0,1,70.892-16.917Zm7.549,9.991a3.9,3.9,0,0,1-2.007-.517,3.737,3.737,0,0,1-1.408-1.483,4.821,4.821,0,0,1-.524-2.329,4.542,4.542,0,0,1,.569-2.344,3.9,3.9,0,0,1,1.5-1.475,4.108,4.108,0,0,1,2.007-.509,3.262,3.262,0,0,1,1.378.27,4.1,4.1,0,0,1,1.034.674l-.854,1.123a2.872,2.872,0,0,0-.689-.472,1.779,1.779,0,0,0-.779-.172,2.132,2.132,0,0,0-1.228.367,2.476,2.476,0,0,0-.846,1.019,3.532,3.532,0,0,0-.307,1.52,3.607,3.607,0,0,0,.3,1.52,2.414,2.414,0,0,0,.824,1.011,2.068,2.068,0,0,0,1.2.359,2.208,2.208,0,0,0,.974-.217,3.942,3.942,0,0,0,.824-.532l.719,1.153a3.975,3.975,0,0,1-1.273.771A4.011,4.011,0,0,1,78.442-6.926Zm8.134,0a4.065,4.065,0,0,1-2.037-.517,3.775,3.775,0,0,1-1.453-1.483,4.711,4.711,0,0,1-.539-2.329,4.906,4.906,0,0,1,.315-1.8,4.109,4.109,0,0,1,.854-1.363,3.83,3.83,0,0,1,1.213-.861,3.362,3.362,0,0,1,1.378-.3,3.311,3.311,0,0,1,1.842.487,3.065,3.065,0,0,1,1.138,1.363,5,5,0,0,1,.389,2.045q0,.255-.022.487a2.415,2.415,0,0,1-.067.4H84.239a3.161,3.161,0,0,0,.412,1.341,2.378,2.378,0,0,0,.884.869,2.51,2.51,0,0,0,1.251.307,3.159,3.159,0,0,0,1.034-.165,4.416,4.416,0,0,0,.929-.449l.6,1.093a6.11,6.11,0,0,1-1.266.629A4.351,4.351,0,0,1,86.575-6.926ZM84.224-12h3.954a2.533,2.533,0,0,0-.472-1.633,1.659,1.659,0,0,0-1.371-.584,1.914,1.914,0,0,0-.959.255,2.127,2.127,0,0,0-.756.749A2.974,2.974,0,0,0,84.224-12Z" transform="translate(-1.344 18.984)" fill="url(#linear-gradient)"/>
</svg>
