<svg xmlns="http://www.w3.org/2000/svg" xmlns:xlink="http://www.w3.org/1999/xlink" width="141.528" height="19.32" viewBox="0 0 141.528 19.32">
  <defs>
    <linearGradient id="linear-gradient" y1="0.198" x2="1" y2="1" gradientUnits="objectBoundingBox">
      <stop offset="0" stop-color="#072127"/>
      <stop offset="0.511" stop-color="#4067b2"/>
      <stop offset="1" stop-color="#4885a0"/>
    </linearGradient>
  </defs>
  <path id="Path_17898" data-name="Path 17898" d="M9.048.336a7.182,7.182,0,0,1-4-1.128A7.574,7.574,0,0,1,2.328-4,11.359,11.359,0,0,1,1.344-8.9a11.1,11.1,0,0,1,.984-4.884,7.381,7.381,0,0,1,2.724-3.12,7.358,7.358,0,0,1,4-1.092,7.342,7.342,0,0,1,4.008,1.092,7.411,7.411,0,0,1,2.712,3.12A11.1,11.1,0,0,1,16.752-8.9,11.359,11.359,0,0,1,15.768-4a7.606,7.606,0,0,1-2.712,3.2A7.166,7.166,0,0,1,9.048.336Zm0-2.448a4.072,4.072,0,0,0,2.556-.84A5.383,5.383,0,0,0,13.3-5.316,9.77,9.77,0,0,0,13.9-8.9a9.578,9.578,0,0,0-.6-3.564,5.143,5.143,0,0,0-1.692-2.3,4.194,4.194,0,0,0-2.556-.8,4.194,4.194,0,0,0-2.556.8,5.066,5.066,0,0,0-1.68,2.3A9.754,9.754,0,0,0,4.224-8.9a9.949,9.949,0,0,0,.588,3.588,5.3,5.3,0,0,0,1.68,2.364A4.072,4.072,0,0,0,9.048-2.112ZM25.272.336a3.554,3.554,0,0,1-3.1-1.368A6.537,6.537,0,0,1,21.192-4.9v-8.328h2.784v7.992A4.285,4.285,0,0,0,24.5-2.808a1.917,1.917,0,0,0,1.68.744,2.929,2.929,0,0,0,1.632-.468,6.814,6.814,0,0,0,1.536-1.5v-9.192h2.784V0h-2.28L29.64-1.992h-.072a9.273,9.273,0,0,1-1.92,1.68A4.3,4.3,0,0,1,25.272.336ZM37.464,0V-13.224H39.72l.24,2.376h.048a6.064,6.064,0,0,1,1.7-1.98,3.481,3.481,0,0,1,2.064-.708,3.959,3.959,0,0,1,.816.072,4.328,4.328,0,0,1,.648.192l-.48,2.424a4.328,4.328,0,0,0-.648-.168,4.312,4.312,0,0,0-.7-.048,2.926,2.926,0,0,0-1.68.636,4.827,4.827,0,0,0-1.512,2.22V0Zm22.9.336a8.632,8.632,0,0,1-3.444-.7,9.013,9.013,0,0,1-2.844-1.92L55.7-4.2a7.9,7.9,0,0,0,2.2,1.512,5.935,5.935,0,0,0,2.532.576,3.761,3.761,0,0,0,2.436-.7,2.217,2.217,0,0,0,.852-1.8,2.166,2.166,0,0,0-.36-1.308,2.862,2.862,0,0,0-1-.828q-.636-.336-1.452-.7L58.464-8.5a8.71,8.71,0,0,1-1.692-.948A4.88,4.88,0,0,1,55.4-10.932a4.2,4.2,0,0,1-.54-2.2,4.364,4.364,0,0,1,.744-2.5,5.086,5.086,0,0,1,2.064-1.74,6.827,6.827,0,0,1,3-.636,7.378,7.378,0,0,1,2.952.6A7.148,7.148,0,0,1,66-15.768l-1.416,1.776A6.926,6.926,0,0,0,62.8-15.156a5.189,5.189,0,0,0-2.124-.42,3.448,3.448,0,0,0-2.16.612,1.97,1.97,0,0,0-.792,1.644,1.908,1.908,0,0,0,.408,1.26,3.184,3.184,0,0,0,1.068.816q.66.324,1.356.612L62.976-9.6a8.13,8.13,0,0,1,1.872,1.056A4.438,4.438,0,0,1,66.12-7.032a4.8,4.8,0,0,1,.456,2.208,4.692,4.692,0,0,1-.744,2.58A5.329,5.329,0,0,1,63.7-.372,7.282,7.282,0,0,1,60.36.336Zm16.032,0a6.514,6.514,0,0,1-3.264-.828A6.049,6.049,0,0,1,70.8-2.868,7.549,7.549,0,0,1,69.936-6.6a7.861,7.861,0,0,1,.5-2.892,6.584,6.584,0,0,1,1.368-2.184,6.136,6.136,0,0,1,1.944-1.38,5.386,5.386,0,0,1,2.208-.48,5.3,5.3,0,0,1,2.952.78,4.911,4.911,0,0,1,1.824,2.184A8,8,0,0,1,81.36-7.3q0,.408-.036.78a3.868,3.868,0,0,1-.108.636H72.648a5.065,5.065,0,0,0,.66,2.148A3.81,3.81,0,0,0,74.724-2.34a4.022,4.022,0,0,0,2,.492,5.061,5.061,0,0,0,1.656-.264,7.075,7.075,0,0,0,1.488-.72l.96,1.752A9.789,9.789,0,0,1,78.8-.072,6.972,6.972,0,0,1,76.392.336ZM72.624-7.8H78.96a4.059,4.059,0,0,0-.756-2.616,2.658,2.658,0,0,0-2.2-.936,3.067,3.067,0,0,0-1.536.408,3.408,3.408,0,0,0-1.212,1.2A4.766,4.766,0,0,0,72.624-7.8ZM85.656,0V-13.224h2.256l.24,2.376H88.2a6.064,6.064,0,0,1,1.7-1.98,3.481,3.481,0,0,1,2.064-.708,3.959,3.959,0,0,1,.816.072,4.328,4.328,0,0,1,.648.192l-.48,2.424a4.328,4.328,0,0,0-.648-.168,4.312,4.312,0,0,0-.7-.048,2.926,2.926,0,0,0-1.68.636,4.827,4.827,0,0,0-1.512,2.22V0ZM99.984,0,95.352-13.224H98.16L100.416-6.1q.288.96.576,1.956t.576,1.98h.1q.312-.984.6-1.98t.552-1.956l2.256-7.128h2.688L103.224,0Zm11.4,0V-13.224h2.76V0Zm1.392-15.672a1.728,1.728,0,0,1-1.26-.456,1.631,1.631,0,0,1-.468-1.224,1.57,1.57,0,0,1,.468-1.176,1.728,1.728,0,0,1,1.26-.456,1.705,1.705,0,0,1,1.224.456,1.55,1.55,0,0,1,.48,1.176,1.609,1.609,0,0,1-.48,1.224A1.705,1.705,0,0,1,112.776-15.672ZM124.872.336a6.252,6.252,0,0,1-3.216-.828A5.988,5.988,0,0,1,119.4-2.868a7.724,7.724,0,0,1-.84-3.732,7.278,7.278,0,0,1,.912-3.756,6.244,6.244,0,0,1,2.4-2.364,6.582,6.582,0,0,1,3.216-.816,5.227,5.227,0,0,1,2.208.432,6.574,6.574,0,0,1,1.656,1.08l-1.368,1.8a4.6,4.6,0,0,0-1.1-.756,2.85,2.85,0,0,0-1.248-.276,3.415,3.415,0,0,0-1.968.588,3.967,3.967,0,0,0-1.356,1.632,5.659,5.659,0,0,0-.492,2.436,5.78,5.78,0,0,0,.48,2.436,3.867,3.867,0,0,0,1.32,1.62,3.314,3.314,0,0,0,1.92.576,3.537,3.537,0,0,0,1.56-.348,6.316,6.316,0,0,0,1.32-.852l1.152,1.848a6.369,6.369,0,0,1-2.04,1.236A6.427,6.427,0,0,1,124.872.336Zm13.032,0a6.514,6.514,0,0,1-3.264-.828,6.049,6.049,0,0,1-2.328-2.376,7.548,7.548,0,0,1-.864-3.732,7.861,7.861,0,0,1,.5-2.892,6.584,6.584,0,0,1,1.368-2.184,6.136,6.136,0,0,1,1.944-1.38,5.386,5.386,0,0,1,2.208-.48,5.3,5.3,0,0,1,2.952.78,4.911,4.911,0,0,1,1.824,2.184,8,8,0,0,1,.624,3.276q0,.408-.036.78a3.869,3.869,0,0,1-.108.636H134.16a5.065,5.065,0,0,0,.66,2.148,3.81,3.81,0,0,0,1.416,1.392,4.022,4.022,0,0,0,2,.492,5.061,5.061,0,0,0,1.656-.264,7.075,7.075,0,0,0,1.488-.72l.96,1.752a9.789,9.789,0,0,1-2.028,1.008A6.972,6.972,0,0,1,137.9.336ZM134.136-7.8h6.336a4.059,4.059,0,0,0-.756-2.616,2.657,2.657,0,0,0-2.2-.936,3.067,3.067,0,0,0-1.536.408,3.408,3.408,0,0,0-1.212,1.2A4.765,4.765,0,0,0,134.136-7.8Z" transform="translate(-1.344 18.984)" fill="url(#linear-gradient)"/>
</svg>
