<svg xmlns="http://www.w3.org/2000/svg" xmlns:xlink="http://www.w3.org/1999/xlink" width="44.424" height="22.608" viewBox="0 0 44.424 22.608">
  <defs>
    <linearGradient id="linear-gradient" x1="-0.068" y1="0.138" x2="1" y2="1" gradientUnits="objectBoundingBox">
      <stop offset="0" stop-color="#072127"/>
      <stop offset="0.511" stop-color="#4067b2"/>
      <stop offset="1" stop-color="#4885a0"/>
    </linearGradient>
  </defs>
  <path id="Path_17918" data-name="Path 17918" d="M2.328,0V-17.688H12.792v2.352H5.112v5.4h6.552v2.328H5.112V0ZM13.656,0l5.856-17.688h3.216L28.584,0H25.632L22.776-9.6q-.432-1.44-.84-2.916T21.12-15.48h-.1q-.384,1.512-.8,2.976t-.852,2.9L16.512,0Zm3.312-5.016V-7.224h8.256v2.208ZM38.472.336a7.182,7.182,0,0,1-4-1.128A7.574,7.574,0,0,1,31.752-4,11.359,11.359,0,0,1,30.768-8.9a11.1,11.1,0,0,1,.984-4.884,7.381,7.381,0,0,1,2.724-3.12,7.358,7.358,0,0,1,4-1.092,7.342,7.342,0,0,1,4.008,1.092,7.411,7.411,0,0,1,2.712,3.12A11.1,11.1,0,0,1,46.176-8.9,11.358,11.358,0,0,1,45.192-4a7.606,7.606,0,0,1-2.712,3.2A7.166,7.166,0,0,1,38.472.336Zm0-2.328a4.112,4.112,0,0,0,2.556-.828A5.282,5.282,0,0,0,42.72-5.208a10.286,10.286,0,0,0,.6-3.7,9.578,9.578,0,0,0-.6-3.564,5.143,5.143,0,0,0-1.692-2.3,4.194,4.194,0,0,0-2.556-.8,4.194,4.194,0,0,0-2.556.8,5.066,5.066,0,0,0-1.68,2.3A9.754,9.754,0,0,0,33.648-8.9a10.476,10.476,0,0,0,.588,3.7,5.205,5.205,0,0,0,1.68,2.388A4.112,4.112,0,0,0,38.472-1.992Zm5.544,6.6A7.735,7.735,0,0,1,40.872,4a6.79,6.79,0,0,1-2.352-1.68A7.98,7.98,0,0,1,37.032-.072l2.88-.264a3.786,3.786,0,0,0,1,1.488,4.061,4.061,0,0,0,1.548.876,6.271,6.271,0,0,0,1.872.276,6.9,6.9,0,0,0,1.044-.072,4.277,4.277,0,0,0,.852-.216l.528,2.112a5.63,5.63,0,0,1-1.152.336A8.091,8.091,0,0,1,44.016,4.608Z" transform="translate(-2.328 18)" fill="url(#linear-gradient)"/>
</svg>
