<svg xmlns="http://www.w3.org/2000/svg" xmlns:xlink="http://www.w3.org/1999/xlink" width="67.701" height="470.802" viewBox="0 0 67.701 470.802">
  <defs>
    <filter id="Union_3" x="0" y="0" width="67.701" height="470.802" filterUnits="userSpaceOnUse">
      <feOffset dy="3" input="SourceAlpha"/>
      <feGaussianBlur stdDeviation="3" result="blur"/>
      <feFlood flood-opacity="0.302"/>
      <feComposite operator="in" in2="blur"/>
      <feComposite in="SourceGraphic"/>
    </filter>
  </defs>
  <g transform="matrix(1, 0, 0, 1, 0, 0)" filter="url(#Union_3)">
    <path id="Union_3-2" data-name="Union 3" d="M-638.672,11969.287l-2.349-4.2a1,1,0,0,1-.075-.806,1,1,0,0,1,.547-.6c1.655-.724,4.338-2.1,7.249-3.722v-13.113h-6.4a1,1,0,0,1-.985-.835l-.252-1.5a.99.99,0,0,1,.225-.811,1,1,0,0,1,.763-.354h6.444l1.55-2.094a1,1,0,0,1,.685-.4c.039,0,.081-.006.12-.006a1.007,1.007,0,0,1,.637.229l4.3,3.551a1,1,0,0,1,.36.685,1,1,0,0,1-.237.736,3.776,3.776,0,0,1-2.16,1.1v12.215c3.118,3.4,6.525,3.983,14.8,3.983,5.795,0,13.735,0,19.668-.2a.992.992,0,0,1,.727.282,1,1,0,0,1,.306.718v.7a1,1,0,0,1-.826.985,1.936,1.936,0,0,0-1.634,1.893,1,1,0,0,1-.991.871h-17.2c-5.146,0-8.252-.394-10.721-1.361a12.7,12.7,0,0,1-5.975-4.924c-1.875,1.944-4.383,4.257-6.089,5.693a2.031,2.031,0,0,1-1.13,1.667,1,1,0,0,1-.485.126A1,1,0,0,1-638.672,11969.287Zm16.973-6.738a1,1,0,0,1-1-1v-17.3a1,1,0,0,1,.457-.841,1,1,0,0,1,.952-.072l3.256,1.463h14.888l1.451-1.619a1,1,0,0,1,.745-.33,1.008,1.008,0,0,1,.6.2l3.9,2.95a1,1,0,0,1,.391.69,1,1,0,0,1-.234.758,4.134,4.134,0,0,1-1.658,1.06v11.638a1.008,1.008,0,0,1-.015.166c-.06.369-.3.862-1.6,1.418a6.058,6.058,0,0,1-2.187.517h-.5a1,1,0,0,1-1-1v-2.15H-617.5v1.4c0,.613-.472,1.121-1.439,1.551a5.765,5.765,0,0,1-2.262.5Zm4.2-6.9h14.248v-7.4H-617.5Zm-9-13.452a1,1,0,0,1-.964-.732l-.4-1.451a1,1,0,0,1,.168-.871,1,1,0,0,1,.8-.394h1.021a1,1,0,0,1-.445-.622,1,1,0,0,1,.129-.766,40.937,40.937,0,0,0,5.011-13.7,1,1,0,0,1,.463-.67,1.01,1.01,0,0,1,.811-.1l5.1,1.55a1.014,1.014,0,0,1,.628.562,1.024,1.024,0,0,1-.024.845,2.7,2.7,0,0,1-2.034,1.445c-.357.916-.724,1.781-1.109,2.607h4.2v-6.651a1,1,0,0,1,.327-.739,1,1,0,0,1,.673-.261c.033,0,.063,0,.1.006l5.1.5a1,1,0,0,1,.688.379,1,1,0,0,1,.2.76,2.536,2.536,0,0,1-1.839,2.067v3.941h4.815l2.052-2.575a1,1,0,0,1,1.385-.174c.114.087,2.764,2.1,4.482,3.719a1,1,0,0,1,.279.991,2.2,2.2,0,0,1-2.316,1.538h-10.7v5.351h6.663l2.049-2.616a1,1,0,0,1,1.4-.175c.111.087,2.758,2.148,4.422,3.71a1,1,0,0,1,.279,1,2.117,2.117,0,0,1-2.265,1.534Zm2.956-3.448h10.394v-5.351h-6.086A25.218,25.218,0,0,1-623.544,11938.751Zm-8.781-4.083a1,1,0,0,1-.4-.576c-.676-2.71-3.428-6.275-5.795-8.4a1,1,0,0,1-.333-.8,1,1,0,0,1,.412-.757l.55-.4a.994.994,0,0,1,.589-.192,1.044,1.044,0,0,1,.315.051,17.066,17.066,0,0,1,7.516,4.458,6.1,6.1,0,0,1,1.793,4.84,2.723,2.723,0,0,1-2.659,2.463A3.5,3.5,0,0,1-632.325,11934.668Zm29.785-23.669c-.141-.942-.342-1.453-.67-1.706-.012-.009-.024-.021-.036-.03a7.311,7.311,0,0,0-3.422-.97,1,1,0,0,1-.883-.994v-.848a.993.993,0,0,1,.324-.736.985.985,0,0,1,.76-.261c1.295.111,4.831.4,5.615.4a.991.991,0,0,0,.1,0,.247.247,0,0,0,0-.048V11866a1,1,0,0,1,.33-.742.993.993,0,0,1,.667-.256.688.688,0,0,1,.111.006l5,.55a.991.991,0,0,1,.7.409.993.993,0,0,1,.165.793,2.462,2.462,0,0,1-1.826,1.9v37.442a5.649,5.649,0,0,1-1.066,3.852c-.9,1.052-2.421,1.652-4.782,1.893a.985.985,0,0,1-.107.006A1,1,0,0,1-602.539,11911Zm-30.56.8a1,1,0,0,1-1-1v-6.831a21.675,21.675,0,0,1-5.068,5.906,1,1,0,0,1-1.307-.039l-.6-.55a1,1,0,0,1-.108-1.357,24.192,24.192,0,0,0,4.578-9.881,47.582,47.582,0,0,0,.955-10.4v-7.209a35.676,35.676,0,0,1-4.04,2.448,1,1,0,0,1-1.2-.211l-.55-.6a1,1,0,0,1-.258-.771.986.986,0,0,1,.4-.706,42.038,42.038,0,0,0,7.711-7.715,40.335,40.335,0,0,0,5.218-8.43,1,1,0,0,1,.919-.6,1.029,1.029,0,0,1,.27.036l5.3,1.5a1,1,0,0,1,.616.5,1.014,1.014,0,0,1,.051.8,2.316,2.316,0,0,1-.15.327,22.671,22.671,0,0,1,7.648,3.954c1.848,1.589,2.788,3.406,2.581,4.989a2.532,2.532,0,0,1-2.505,2.3,3.119,3.119,0,0,1-1.571-.457.99.99,0,0,1-.388-.414c-.069-.136-.141-.276-.222-.418a2.213,2.213,0,0,1-1.983.922H-631a1,1,0,0,1-.838-.453c-.433.382-.874.751-1.316,1.111l2.409,1.042h12.506l1.505-1.628a1,1,0,0,1,1.334-.123l4,3a1,1,0,0,1,.4.694,1,1,0,0,1-.243.763,4.781,4.781,0,0,1-1.9,1.13v9.964a1.029,1.029,0,0,1-.051.315c-.105.31-.366.722-1.472,1.187l3.166,2.344a1,1,0,0,1,.4.657,1,1,0,0,1-.189.745,3.713,3.713,0,0,1-1.751,1.124v9.327a1.051,1.051,0,0,1-.012.166c-.093.559-.571.973-1.6,1.375a6.2,6.2,0,0,1-2.091.46h-.451a1,1,0,0,1-1-1v-1.851H-629.05v1.5c0,.715-.67,1.214-1.232,1.5a5,5,0,0,1-2.319.544Zm4.049-7.048H-618.2v-5.251H-629.05Zm-2.025-9.508,1.881.808h11.106l.61-.666a1,1,0,0,1-.82-.985v-.6h-12.578C-630.922,11894.249-630.988,11894.724-631.075,11895.243Zm.484-4.843H-618.3v-2h-12.254C-630.552,11889.046-630.561,11889.71-630.591,11890.4Zm.042-5.449H-618.3v-1.9h-12.251Zm1.826-10.5h5.948l1.751-2.133a1,1,0,0,1,.769-.367,30.359,30.359,0,0,0-4.043-2.829A46.56,46.56,0,0,1-628.723,11874.449Zm20.124,27.3a1,1,0,0,1-1-1v-31.3a1,1,0,0,1,.33-.742.989.989,0,0,1,.667-.258c.036,0,.069,0,.105.006l4.849.5a.993.993,0,0,1,.706.408.989.989,0,0,1,.168.8,2.489,2.489,0,0,1-1.775,1.94v27.551c0,1.352-2.04,2.1-3.452,2.1Zm-25.553-47.9a1,1,0,0,1-1-1V11828.4a44.614,44.614,0,0,1-4.134,4.951,1,1,0,0,1-1.271.135l-.748-.5a1,1,0,0,1-.43-.641,1.006,1.006,0,0,1,.159-.757,69.909,69.909,0,0,0,6-11.088,94.237,94.237,0,0,0,4.807-13.65.993.993,0,0,1,.49-.625.987.987,0,0,1,.475-.12.948.948,0,0,1,.315.051l5.149,1.7a.983.983,0,0,1,.586.515.991.991,0,0,1,.042.774,2.412,2.412,0,0,1-2.136,1.532,82.381,82.381,0,0,1-4.043,9.142l.793.3a1,1,0,0,1,.595,1.253,2.219,2.219,0,0,1-1.451,1.379v29a1.042,1.042,0,0,1-.018.2c-.036.181-.144.725-1.382,1.343a5.13,5.13,0,0,1-2.2.563Zm8.45-.1a1,1,0,0,1-1-1v-32.6a1,1,0,0,1,.333-.745,1,1,0,0,1,.778-.249l4.9.55a1.008,1.008,0,0,1,.706.415,1.007,1.007,0,0,1,.159.8,2.437,2.437,0,0,1-1.775,1.851v24.474h21.013l1.051-1.343a5.936,5.936,0,0,1-2.214.445h-.5a1,1,0,0,1-1-1v-1.851H-614v1.4c0,1.1-1.616,2-3.6,2h-.5a1,1,0,0,1-1-1v-27.6a1,1,0,0,1,.451-.835.993.993,0,0,1,.946-.081l3.512,1.518h1.908c.057-.839.114-1.782.177-2.852H-625a1,1,0,0,1-.961-.724l-.4-1.4a1,1,0,0,1,.162-.877,1,1,0,0,1,.8-.4h13.515c.117-1.778.246-3.854.336-5.65a.986.986,0,0,1,.345-.706,1.007,1.007,0,0,1,.652-.243c.033,0,.066,0,.1.006l5,.5a.991.991,0,0,1,.691.384,1,1,0,0,1,.2.764,2.509,2.509,0,0,1-1.769,1.968c-.1.937-.222,1.935-.345,2.979h5.783l2.052-2.658a1,1,0,0,1,.667-.382.988.988,0,0,1,.739.2c.114.087,2.806,2.193,4.419,3.707a1,1,0,0,1,.3.907,2.066,2.066,0,0,1-2.235,1.622h-12.106c-.123,1.061-.237,2-.348,2.852h4.494l1.4-1.649a1,1,0,0,1,1.379-.139l3.7,2.9a1.007,1.007,0,0,1,.379.693,1.014,1.014,0,0,1-.243.754,3.447,3.447,0,0,1-1.652.989v21.821a.992.992,0,0,1,.8.18c.117.088,2.863,2.151,4.536,3.72a1.012,1.012,0,0,1,.279.994,2.164,2.164,0,0,1-2.265,1.535h-27v.9c0,1.313-2.073,2.15-3.5,2.15Zm11.7-13.7h10.749v-3.749H-614Zm0-7.149h10.749v-3.552H-614Zm0-7h10.749v-3.5H-614Zm-20.6-30.1a1,1,0,0,1-1-1v-24.637a40.245,40.245,0,0,1-3.944,4.645,1,1,0,0,1-1.262.126l-.751-.5a.992.992,0,0,1-.427-.643.987.987,0,0,1,.159-.754,68.346,68.346,0,0,0,5.876-10.833,88.78,88.78,0,0,0,4.68-13.353.994.994,0,0,1,.484-.625,1.016,1.016,0,0,1,.484-.123,1.038,1.038,0,0,1,.3.045l5.2,1.649a1.014,1.014,0,0,1,.61.547,1.006,1.006,0,0,1,0,.822,2.514,2.514,0,0,1-2.16,1.46c-.093.244-.186.484-.279.725h25.2l2.25-2.779a1,1,0,0,1,1.373-.174c.12.09,2.968,2.205,4.74,3.875a1,1,0,0,1,.279.991,2.037,2.037,0,0,1-2.214,1.487h-9.3v6.951h4.527l1.352-1.637a1,1,0,0,1,1.394-.147l3.65,2.9a1,1,0,0,1,.373.694,1,1,0,0,1-.243.748,3.367,3.367,0,0,1-1.7,1.007v25.636c0,.364-.141.911-1.379,1.481a5.563,5.563,0,0,1-2.271.52h-.5a1,1,0,0,1-1-1v-3.2h-22v2.451c0,.724-.67,1.207-1.229,1.486a5.166,5.166,0,0,1-2.322.515h-.5a1,1,0,0,1-1-1v-31a1,1,0,0,1,.448-.835,1,1,0,0,1,.943-.087l3.461,1.472h3.9v-6.951h-7.85a1,1,0,0,1-.961-.724l-.2-.715c-.979,2.363-2,4.56-3.064,6.563l.889.343a1.009,1.009,0,0,1,.559.531,1.012,1.012,0,0,1,.012.772,2.311,2.311,0,0,1-1.481,1.34v28.89a1.05,1.05,0,0,1-.018.2c-.036.181-.144.721-1.358,1.318a4.957,4.957,0,0,1-2.124.535Zm30.3-8.5h4.2v-20.151h-4.2Zm-9.051,0h4v-20.151h-4Zm-8.748,0h3.7v-20.151h-3.7Zm8.748-23.6h4v-6.951h-4Zm9.85-25.85a1,1,0,0,1-1-1V11710.9h-5.449v.5a41.836,41.836,0,0,1-1.9,13.969,23.388,23.388,0,0,1-3.56,6.6,24.846,24.846,0,0,1-6.3,5.675,1,1,0,0,1-1.22-.108l-.7-.649a1,1,0,0,1-.318-.745.987.987,0,0,1,.336-.735,23.284,23.284,0,0,0,5.209-6.579,2.407,2.407,0,0,1-1.688.676,3.238,3.238,0,0,1-1.748-.559,1,1,0,0,1-.421-.562,13.219,13.219,0,0,0-3.539-5.1v12.422c0,.625-.463,1.172-1.376,1.622a5.028,5.028,0,0,1-2.124.529h-.652a1,1,0,0,1-1-1v-10.9a36.249,36.249,0,0,1-2.565,3.059,36.23,36.23,0,0,1-5.612,4.857,1,1,0,0,1-1.382-.226l-.55-.751a1,1,0,0,1,.105-1.3,37.646,37.646,0,0,0,8.2-12.488H-639.3a1,1,0,0,1-.967-.741l-.4-1.5a1,1,0,0,1,.174-.865,1,1,0,0,1,.793-.391h8.751v-4.3h-8.85a1,1,0,0,1-.964-.725l-.4-1.4a1.008,1.008,0,0,1,.165-.877,1,1,0,0,1,.8-.4h5.813a.954.954,0,0,1-.012-.133,19.669,19.669,0,0,0-2.286-7.555c-.018-.036-.036-.075-.051-.114h-2.112a1,1,0,0,1-.961-.725l-.4-1.4a.994.994,0,0,1,.162-.877,1,1,0,0,1,.8-.4h8.3v-5.6a1,1,0,0,1,.327-.742,1,1,0,0,1,.772-.253l4.9.5a1,1,0,0,1,.691.382,1.006,1.006,0,0,1,.2.763,2.37,2.37,0,0,1-1.688,1.935v3.014h2.5l1.851-2.452a1,1,0,0,1,.673-.39,1,1,0,0,1,.751.213c.1.081,2.547,2.04,4.11,3.5a1,1,0,0,1,.279.994,2.116,2.116,0,0,1-2.265,1.535h-.787a1.007,1.007,0,0,1,.225.288.99.99,0,0,1,.06.778,2.4,2.4,0,0,1-2.181,1.6,55.305,55.305,0,0,1-3.169,5.138h1.613l1.95-2.515a1.007,1.007,0,0,1,.673-.379.993.993,0,0,1,.745.214c.093.075,2.082,1.676,3.623,3.1V11695a1,1,0,0,1,.421-.813,1.01,1.01,0,0,1,.91-.129l3.374,1.187a57.555,57.555,0,0,0,11-5.032,1.019,1.019,0,0,1,.544-.159,1,1,0,0,1,.637.229l3.95,3.25a1.006,1.006,0,0,1,.363.722,1.006,1.006,0,0,1-.294.757,2.282,2.282,0,0,1-1.685.637,5.207,5.207,0,0,1-1.454-.24,82.176,82.176,0,0,1-12.617,3.055v8.94h9.213l2.1-2.668a1,1,0,0,1,.673-.375.987.987,0,0,1,.736.213c.114.087,2.764,2.2,4.386,3.824a1,1,0,0,1,.276.887,2.066,2.066,0,0,1-2.235,1.619h-4.449v24.85c0,.721-.7,1.231-1.295,1.534a5.253,5.253,0,0,1-2.406.568Zm-22.3-18.28a14.717,14.717,0,0,1,6.354,3.323,5.284,5.284,0,0,1,1.851,4.235,26.06,26.06,0,0,0,.964-2.649,34.331,34.331,0,0,0,1.214-6.23,2.234,2.234,0,0,1-1.932.85h-8.45Zm6.531-6.446c.1.081,2.457,2,3.926,3.467.024.027.048.051.069.078.141-1.884.174-3.68.174-5.27v-.469a2.7,2.7,0,0,1-1.451.367h-7.681a1.078,1.078,0,0,1,.03.327,2.2,2.2,0,0,1-1.6,1.962v2.013h3.223l1.9-2.331a.994.994,0,0,1,.774-.369A1,1,0,0,1-619.269,11713.125Zm-10.9-9.937a5.6,5.6,0,0,1,.6,4.134,3.553,3.553,0,0,1-.228.58h2.286a76.417,76.417,0,0,0,2.148-7.8h-7.315A10.846,10.846,0,0,1-630.174,11703.188Zm-10.3-23.65-.652-.6a1,1,0,0,1-.156-1.282,30.483,30.483,0,0,0,4.371-11.464,65.886,65.886,0,0,0,.865-11.688v-7.651a1,1,0,0,1,.445-.832,1.006,1.006,0,0,1,.94-.091l3.785,1.574h5.816a15.352,15.352,0,0,0-2.505-6.3H-636.5a1,1,0,0,1-.952-.694l-.451-1.4a1.012,1.012,0,0,1,.144-.895,1.008,1.008,0,0,1,.808-.409H-619.7v-4.8a1,1,0,0,1,.327-.742,1,1,0,0,1,.67-.259.854.854,0,0,1,.1.007l4.9.5a1,1,0,0,1,.691.385,1.006,1.006,0,0,1,.2.763,2.34,2.34,0,0,1-1.589,1.905v2.243h10.767l2.052-2.574a1,1,0,0,1,1.394-.168c.108.084,2.7,2.094,4.41,3.653a.992.992,0,0,1,.285,1.023,2.214,2.214,0,0,1-2.307,1.464h-5.909a1,1,0,0,1,.057.769,2.5,2.5,0,0,1-2.31,1.622,41.654,41.654,0,0,1-3.121,3.911h7.258l2.1-2.583a1,1,0,0,1,1.391-.156c.114.09,2.794,2.187,4.494,3.688a.992.992,0,0,1,.3,1.013,2.2,2.2,0,0,1-2.313,1.538H-610.29a.99.99,0,0,1,.336.832,2.19,2.19,0,0,1-1.6,1.935v2.683h6.378l2-2.437a1,1,0,0,1,1.37-.165,51.268,51.268,0,0,1,4.3,3.584,1,1,0,0,1,.27.979,2.067,2.067,0,0,1-2.217,1.538h-12.1v5.1h5.579l1.95-2.385a1,1,0,0,1,1.388-.153c.105.078,2.547,1.988,4.158,3.445a1,1,0,0,1,.291,1,2.111,2.111,0,0,1-2.262,1.538h-11.1v6.149h9.727l2.1-2.581a1,1,0,0,1,1.379-.165c.111.084,2.755,2.1,4.47,3.659a1,1,0,0,1,.282,1.024,2.21,2.21,0,0,1-2.307,1.463h-36.25a1,1,0,0,1-.952-.694l-.451-1.4a1.013,1.013,0,0,1,.144-.9,1,1,0,0,1,.808-.411h15.852v-6.149h-9.6a1,1,0,0,1-.964-.733l-.4-1.451a.994.994,0,0,1,.168-.871,1,1,0,0,1,.8-.394h10v-5.1h-7.219a26.052,26.052,0,0,1-5.837,6.3,1,1,0,0,1-1.187,0l-.751-.55-.072-.058c-.075.343-.153.688-.24,1.037a26.356,26.356,0,0,1-7.048,12.83,1,1,0,0,1-.7.284A1,1,0,0,1-640.478,11679.537Zm9.679-25.036a56.784,56.784,0,0,1-.643,9.184,34.683,34.683,0,0,0,5.912-12.684H-630.8Zm11.148-2.806a1,1,0,0,1,.6.514,1,1,0,0,1,.042.784,2.458,2.458,0,0,1-2.052,1.556c-.264.609-.559,1.24-.889,1.9h5.2v-5.251a1.081,1.081,0,0,1,.018-.2h-5.128Zm-1.19-8.715a4.925,4.925,0,0,1,1.018,3.869,3.5,3.5,0,0,1-.2.651h6.738a63.666,63.666,0,0,0,2.394-6.3h-11.695A8.88,8.88,0,0,1-620.84,11642.98Zm.5-21.317-.7-.9a.991.991,0,0,1-.2-.741,1.016,1.016,0,0,1,.385-.664,24.935,24.935,0,0,0,4.933-4.936c-.192.057-.388.111-.583.168-5.071,1.469-11.364,3.289-19.92,5.426a3.007,3.007,0,0,1-1.634,1.243,1,1,0,0,1-1.22-.592l-1.748-4.449a1,1,0,0,1,.081-.892,1,1,0,0,1,.76-.472c2.163-.192,5.909-.661,10.139-1.268v-3.386H-639a1,1,0,0,1-.967-.742l-.4-1.5a1,1,0,0,1,.174-.868,1,1,0,0,1,.793-.391h9.349v-2.749h-4.1v.2c0,1.15-1.79,1.95-3.4,1.95H-638a1,1,0,0,1-1-1v-17.152a1,1,0,0,1,.451-.836,1,1,0,0,1,.946-.081l3.259,1.418h4.293v-1.949h-9.7a1,1,0,0,1-.97-.767l-.352-1.45a1,1,0,0,1,.186-.854,1,1,0,0,1,.787-.382h10.049v-2.033c-3.208.339-6.483.541-9.535.583a.992.992,0,0,1-1-.832l-.15-.9a1,1,0,0,1,.183-.761,1,1,0,0,1,.67-.4,114.419,114.419,0,0,0,20.437-4.7.977.977,0,0,1,.345-.062.993.993,0,0,1,.694.279l3.65,3.5a.993.993,0,0,1,.306.738,1,1,0,0,1-.336.73,2.359,2.359,0,0,1-1.6.54,4.884,4.884,0,0,1-1.709-.351c-2.181.417-4.674.777-6.948,1.087v2.574h4.518l1.848-2.321a1,1,0,0,1,1.4-.169c.1.081,2.5,1.947,4.07,3.41a1,1,0,0,1,.279.994,1.963,1.963,0,0,1-.886,1.187h3.833c.018-2.061.009-4.2,0-6.446-.006-1.328-.012-2.7-.012-4.1a1,1,0,0,1,.336-.748.994.994,0,0,1,.784-.244l5.05.6a1,1,0,0,1,.694.411,1,1,0,0,1,.165.793,2.537,2.537,0,0,1-1.83,1.94c0,2.71,0,5.3-.033,7.8h4.885l1.6-1.812a1,1,0,0,1,1.394-.1l3.8,3.2a1,1,0,0,1,.351.688,1,1,0,0,1-.243.736,3.373,3.373,0,0,1-1.766,1.019c-.165,9.149-.439,15.23-.886,19.649-.511,5.047-1.259,7.934-2.427,9.357,0,0-.006.006-.006.009a7.532,7.532,0,0,1-5.918,2.557,1,1,0,0,1-1-1,2.384,2.384,0,0,0-.393-1.683,11.344,11.344,0,0,0-3.485-1.033,1,1,0,0,1-.82-.985v-.9a1,1,0,0,1,.33-.745,1,1,0,0,1,.775-.249c1.992.216,4.6.444,5.494.444.685,0,.769-.084,1.042-.357a4.626,4.626,0,0,0,.745-2.1,44.667,44.667,0,0,0,.679-5.254c.327-3.966.55-9.544.715-17.992h-4.951c-.138,6.285-.586,12.786-2.55,18.316a25.754,25.754,0,0,1-4.248,7.685,28.208,28.208,0,0,1-7.309,6.3.989.989,0,0,1-.523.148A1,1,0,0,1-620.338,11621.663Zm-4.71-8.825c.844-.13,1.709-.262,2.586-.394,2.214-.337,4.5-.686,6.813-1.034a1,1,0,0,1,1.121.748l.027.108a26.592,26.592,0,0,0,2.427-5.633c1.583-5.182,1.95-11.211,2.058-17.033h-4.224a1,1,0,0,1,.087,1.181,2.741,2.741,0,0,1-1.6,1.124v11.343c0,.592-.442,1.076-1.355,1.484a5.326,5.326,0,0,1-.778.276c.808.658,2.115,1.742,3.079,2.671a1,1,0,0,1,.27.982,2.128,2.128,0,0,1-2.214,1.538h-8.3Zm0-6.138h3.274l1.406-1.716a.992.992,0,0,1-.382-.783v-.25h-4.3Zm0-6.2h4.3v-2.551h-4.3Zm-9.1,0h4.1v-2.551h-4.1Zm9.1-6h4.3v-2.6h-4.3Zm-9.1,0h4.1v-2.6h-4.1Zm9.1-6.051h4.719l1.151-1.427a1,1,0,0,1,1.385-.168l1.932,1.478-.252-.916a1.012,1.012,0,0,1,.168-.874l.036-.042h-9.138Zm6.2-24.75a1,1,0,0,1-1-1v-27.313a72.078,72.078,0,0,1-8.174,6.837,77.142,77.142,0,0,1-11.442,6.829,1,1,0,0,1-1.256-.334l-.451-.648a1,1,0,0,1-.156-.781,1.007,1.007,0,0,1,.463-.646,76.167,76.167,0,0,0,14.221-11.139,54.8,54.8,0,0,0,9.186-11.755H-639.1a1,1,0,0,1-.955-.7l-.451-1.447a1.007,1.007,0,0,1,.15-.893,1,1,0,0,1,.805-.405h36.875l2.4-2.933a1,1,0,0,1,.775-.369.979.979,0,0,1,.613.213c.123.094,3,2.338,4.852,3.993a.993.993,0,0,1,.318.925,2.074,2.074,0,0,1-2.283,1.619h-14.534a57,57,0,0,1-4.221,6.063l1.06.405a1,1,0,0,1,.595,1.244,1.012,1.012,0,0,1,.457.039c6.339,2.045,11.427,4.626,14.714,7.465a13.728,13.728,0,0,1,3.049,3.545,4.933,4.933,0,0,1,.745,3.082,2.325,2.325,0,0,1-2.4,2.033,3.963,3.963,0,0,1-1.568-.357.983.983,0,0,1-.448-.388,31.923,31.923,0,0,0-6.666-6.894,68,68,0,0,0-8.736-6.068,1.008,1.008,0,0,1-.487-.691,1.026,1.026,0,0,1,.033-.478c-.048.019-.1.036-.147.052v28.9c0,.613-.46,1.082-1.493,1.518a5.987,5.987,0,0,1-2.208.483Z" transform="translate(651 -11511)" fill="#fff"/>
  </g>
</svg>
