<svg xmlns="http://www.w3.org/2000/svg" xmlns:xlink="http://www.w3.org/1999/xlink" width="26" height="26" viewBox="0 0 26 26">
  <defs>
    <linearGradient id="linear-gradient" x1="0.054" y1="0.163" x2="0.5" y2="1" gradientUnits="objectBoundingBox">
      <stop offset="0" stop-color="#072127"/>
      <stop offset="0.511" stop-color="#4067b2"/>
      <stop offset="1" stop-color="#4885a0"/>
    </linearGradient>
  </defs>
  <g id="Checkbox" transform="translate(0 -0.27)">
    <g id="Area" transform="translate(0 0.27)" fill="none" stroke="#000" stroke-width="2">
      <rect width="26" height="26" stroke="none"/>
      <rect x="1" y="1" width="24" height="24" fill="none"/>
    </g>
    <path id="Union_7" data-name="Union 7" d="M-10335.081,8644.189l-4.809-4.809a1.571,1.571,0,0,1,0-2.222,1.572,1.572,0,0,1,2.221,0l3.7,3.7,7.671-7.671a1.576,1.576,0,0,1,2.22,0,1.573,1.573,0,0,1,0,2.222l-8.779,8.779a1.57,1.57,0,0,1-1.111.459A1.566,1.566,0,0,1-10335.081,8644.189Z" transform="translate(10344.998 -8624.913)" fill="url(#linear-gradient)"/>
  </g>
</svg>
