<svg id="Group_13823" data-name="Group 13823" xmlns="http://www.w3.org/2000/svg" xmlns:xlink="http://www.w3.org/1999/xlink" width="81.622" height="81.69" viewBox="0 0 81.622 81.69">
  <defs>
    <clipPath id="clip-path">
      <rect id="Rectangle_6613" data-name="Rectangle 6613" width="81.623" height="81.69" fill="none" stroke="#707070" stroke-width="0.5"/>
    </clipPath>
  </defs>
  <g id="Group_13823-2" data-name="Group 13823" clip-path="url(#clip-path)">
    <path id="Path_18016" data-name="Path 18016" d="M110.955,92.556a13.1,13.1,0,1,0-12.182,22.032,13.245,13.245,0,0,0,2.95.334,13.106,13.106,0,0,0,9.233-22.366M109.4,109.525A10.9,10.9,0,1,1,99.264,91.2a11,11,0,0,1,2.467-.282,10.9,10.9,0,0,1,7.672,18.607" transform="translate(-48.482 -48.543)" fill="#070f27" stroke="#060f27" stroke-width="0.5"/>
    <path id="Path_18017" data-name="Path 18017" d="M68.745,62.984A18.27,18.27,0,0,0,51.634,35.052V11.415a1.089,1.089,0,0,0,.728-1.023V1.1a1.1,1.1,0,0,0-1.1-1.1H1.1A1.1,1.1,0,0,0,0,1.1v9.3a1.089,1.089,0,0,0,.729,1.023V75.829A1.764,1.764,0,0,0,2.4,77.672H49.98a1.737,1.737,0,0,0,1.654-1.843V71.547c.536.047,1.071.076,1.605.076a18.159,18.159,0,0,0,9.685-2.8L74.588,80.482a4.121,4.121,0,1,0,5.828-5.827ZM2.194,2.194H50.168V9.3H2.194ZM33.629,75.478H18.576V65.871H33.629Zm2.194,0V64.846a1.186,1.186,0,0,0-1.252-1.168H17.634a1.186,1.186,0,0,0-1.252,1.168V75.478H2.923V11.49H49.44V35.355a18.055,18.055,0,0,0-9.2,4.958,18.313,18.313,0,0,0-3.693,5.338H31.33l-1.185.088v7.474l.088,1.186h4.691A18.255,18.255,0,0,0,49.44,71.217v4.261Zm-.9-23.273H32.339V47.846h3.355a18.437,18.437,0,0,0-.772,4.359M78.865,78.938a1.932,1.932,0,0,1-2.725-.007L63.849,66.64a303.58,303.58,0,0,1-.274-.182,1.057,1.057,0,0,0-.632-.114,1.1,1.1,0,0,0-.175.034,1.073,1.073,0,0,0-.222.1.975.975,0,0,0-.1.045A16.14,16.14,0,0,1,37.064,53.3,16.018,16.018,0,0,1,41.79,41.864a15.866,15.866,0,0,1,8.919-4.52A16.123,16.123,0,0,1,66.445,62.517a.951.951,0,0,0-.053.123,1.018,1.018,0,0,0-.074.169,1.048,1.048,0,0,0-.049.253,1.009,1.009,0,0,0,.052.422.978.978,0,0,0,.044.115,1.044,1.044,0,0,0,.17.256c.016.019.023.043.04.061L78.865,76.207a1.934,1.934,0,0,1,0,2.731" fill="#070f27" stroke="#060f27" stroke-width="0.5"/>
    <path id="Path_18018" data-name="Path 18018" d="M26.828,36.558l-1.185.087V44.13l.088,1.184h8.806l1.185-.087V37.742l-.088-1.184Zm6.7,6.562H27.837V38.752h5.691Z" transform="translate(-14.03 -20.002)" fill="#070f27" stroke="#060f27" stroke-width="0.5"/>
    <path id="Path_18019" data-name="Path 18019" d="M75.445,45.315l1.185-.087V37.742l-.088-1.184H67.736l-1.185.087V44.13l.088,1.184Zm-6.7-6.562h5.691V43.12H68.745Z" transform="translate(-36.412 -20.002)" fill="#070f27" stroke="#060f27" stroke-width="0.5"/>
    <path id="Path_18020" data-name="Path 18020" d="M26.828,100.8l-1.185.087v7.484l.088,1.186h8.806l1.185-.089v-7.484l-.088-1.184Zm6.7,6.562H27.837v-4.368h5.691Z" transform="translate(-14.03 -55.15)" fill="#070f27" stroke="#060f27" stroke-width="0.5"/>
    <path id="Path_18021" data-name="Path 18021" d="M26.828,68.679l-1.185.087v7.485l.088,1.184h8.806l1.185-.087V69.863l-.088-1.184Zm6.7,6.563H27.837V70.873h5.691Z" transform="translate(-14.03 -37.577)" fill="#070f27" stroke="#060f27" stroke-width="0.5"/>
    <path id="Path_18022" data-name="Path 18022" d="M75.445,77.436l1.185-.087V69.863l-.088-1.184H67.736l-1.185.087v7.485l.088,1.184Zm-6.7-6.562h5.691v4.368H68.745Z" transform="translate(-36.412 -37.577)" fill="#070f27" stroke="#060f27" stroke-width="0.5"/>
  </g>
</svg>
