<svg id="Group_13818" data-name="Group 13818" xmlns="http://www.w3.org/2000/svg" xmlns:xlink="http://www.w3.org/1999/xlink" width="78.654" height="79.257" viewBox="0 0 78.654 79.257">
  <defs>
    <clipPath id="clip-path">
      <rect id="Rectangle_6611" data-name="Rectangle 6611" width="78.654" height="79.257" fill="none"/>
    </clipPath>
    <clipPath id="clip-path-2">
      <rect id="Rectangle_6612" data-name="Rectangle 6612" width="42.608" height="46.348" fill="none" stroke="#060f27" stroke-width="1.3"/>
    </clipPath>
  </defs>
  <g id="Group_13818-2" data-name="Group 13818" clip-path="url(#clip-path)">
    <g id="Group_13822" data-name="Group 13822" transform="translate(8.654 50.642)">
      <path id="Path_18006" data-name="Path 18006" d="M8.208,124.032H.815a.815.815,0,0,1,0-1.63H7.393V98.23H.815a.815.815,0,0,1,0-1.63H8.208a.815.815,0,0,1,.815.815v25.8a.815.815,0,0,1-.815.815" transform="translate(0 -95.418)" stroke="#000" stroke-width="1"/>
      <path id="Path_18007" data-name="Path 18007" d="M40.618,112.564a.815.815,0,0,1-.019-1.63c1.693-.039,3.418-.038,5.087-.036a92.8,92.8,0,0,0,11.558-.474c2.047-.259,3.217-.929,3.681-2.11a3.653,3.653,0,0,0,.154-2.306,2.847,2.847,0,0,0-2.772-2.168,18.47,18.47,0,0,0-2.288.15,18.11,18.11,0,0,1-2.761.15,33.813,33.813,0,0,1-8.918-1.465,59.332,59.332,0,0,0-7.62-1.94,10.688,10.688,0,0,0-6.322.82.815.815,0,1,1-.587-1.52,12.273,12.273,0,0,1,7.2-.9,61.054,61.054,0,0,1,7.833,1.993,32.238,32.238,0,0,0,8.491,1.387,16.523,16.523,0,0,0,2.511-.143,19.41,19.41,0,0,1,2.5-.159,4.481,4.481,0,0,1,4.309,3.372,5.262,5.262,0,0,1-.21,3.327c-1.033,2.631-4.014,3.008-4.994,3.132a93.026,93.026,0,0,1-11.764.487c-1.659,0-3.374,0-5.048.036h-.019" transform="translate(-20.268 -96.918)" stroke="#000" stroke-width="1"/>
      <path id="Path_18008" data-name="Path 18008" d="M40.507,120.153c-2.925,0-6.218-.039-9.96-.167a.815.815,0,1,1,.029-1.63h.03c7.009.238,12.449.166,16.821.107l.386-.006c5.615-.091,8.708-.142,12.459-1.076a13.25,13.25,0,0,0,2.223-.776,20.7,20.7,0,0,0,4.222-2.563c4.028-3.036,12-9.906,13.324-14.18.5-1.6-.015-3.873-1.062-4.671-.323-.246-.864-.51-1.827.048A53.268,53.268,0,0,0,72.7,98.227a30.494,30.494,0,0,1-6.842,4.093.844.844,0,0,1-1.087-.457.807.807,0,0,1,.469-1.058A29.274,29.274,0,0,0,71.7,96.919a54.451,54.451,0,0,1,4.588-3.08,3.164,3.164,0,0,1,3.719.069c1.759,1.341,2.264,4.406,1.631,6.427-1.814,5.834-13.407,14.623-13.9,14.994a22.32,22.32,0,0,1-4.558,2.761,14.847,14.847,0,0,1-2.5.87c-3.941.982-7.292,1.037-12.845,1.127l-.388.006c-2.061.027-4.359.058-6.945.058" transform="translate(-20.557 -93.279)" stroke="#000" stroke-width="1"/>
    </g>
    <g id="Group_13820" data-name="Group 13820" transform="translate(18.023 2.864)">
      <path id="Path_18009" data-name="Path 18009" d="M34.63,29.6l-.737.055v4.655l.054.737H41l.737-.055V30.335l-.054-.737Zm5.745,4.082H35.258V30.963h5.117Z" transform="translate(-24.346 -21.261)" stroke="#060f27" stroke-width="1.3"/>
      <path id="Path_18010" data-name="Path 18010" d="M88.7,29.6l-.737.055v4.655l.054.737h7.056l.737-.055V30.335l-.054-.737Zm5.745,4.082H89.326V30.963h5.117Z" transform="translate(-63.184 -21.261)" stroke="#060f27" stroke-width="1.3"/>
      <path id="Path_18011" data-name="Path 18011" d="M34.63,61.718l-.737.055v4.655l.054.737H41l.737-.055V62.455l-.054-.737ZM40.375,65.8H35.258V63.083h5.117Z" transform="translate(-24.346 -44.333)" stroke="#060f27" stroke-width="1.3"/>
      <path id="Path_18012" data-name="Path 18012" d="M88.7,61.718l-.737.055v4.655l.054.737h7.056l.737-.055V62.455l-.054-.737ZM94.443,65.8H89.326V63.083h5.117Z" transform="translate(-63.184 -44.333)" stroke="#060f27" stroke-width="1.3"/>
      <path id="Path_18013" data-name="Path 18013" d="M34.63,93.838l-.737.055v4.655l.054.737H41l.737-.054V94.575l-.054-.737Zm5.745,4.082H35.258V95.2h5.117Z" transform="translate(-24.346 -67.405)" stroke="#060f27" stroke-width="1.3"/>
      <path id="Path_18014" data-name="Path 18014" d="M88.7,93.838l-.737.055v4.655l.054.737h7.056l.737-.054V94.575l-.054-.737Zm5.745,4.082H89.326V95.2h5.117Z" transform="translate(-63.184 -67.405)" stroke="#060f27" stroke-width="1.3"/>
      <g id="Group_13821" data-name="Group 13821">
        <g id="Group_13820-2" data-name="Group 13820" clip-path="url(#clip-path-2)">
          <path id="Path_18015" data-name="Path 18015" d="M41.926,0H.682A.683.683,0,0,0,0,.682V4.5a.675.675,0,0,0,.605.667V45.2a1.148,1.148,0,0,0,1.146,1.146H40.866A1.143,1.143,0,0,0,42,45.2V5.17a.675.675,0,0,0,.605-.667V.682A.683.683,0,0,0,41.926,0M1.365,1.364H41.244V3.821H1.365Zm25.27,43.619H21.868v-7.2h4.767Zm-6.132,0H15.976v-7.2H20.5Zm7.5,0V37.147a.747.747,0,0,0-.791-.734H15.4a.747.747,0,0,0-.791.734v7.835H1.97V5.185H40.638v39.8Z" transform="translate(0 0.001)" stroke="#060f27" stroke-width="1.3"/>
        </g>
      </g>
    </g>
  </g>
</svg>
