<svg id="Group_14120" data-name="Group 14120" xmlns="http://www.w3.org/2000/svg" xmlns:xlink="http://www.w3.org/1999/xlink" width="64.306" height="65.904" viewBox="0 0 64.306 65.904">
  <defs>
    <clipPath id="clip-path">
      <rect id="Rectangle_6732" data-name="Rectangle 6732" width="64.306" height="65.905" fill="#070f27"/>
    </clipPath>
  </defs>
  <g id="Group_14115" data-name="Group 14115" clip-path="url(#clip-path)">
    <path id="パス_18203" data-name="パス 18203" d="M224.733,25.925h-.021a6.131,6.131,0,1,1,.021,0Zm.014-10.491a4.359,4.359,0,1,0-.03,8.719l.015.886v-.886a4.359,4.359,0,0,0,.014-8.719Z" transform="translate(-173.387 -10.836)" fill="#070f27"/>
    <path id="パス_18204" data-name="パス 18204" d="M248.266,110.673a.886.886,0,0,1-.742-1.369,5.972,5.972,0,0,0,.98-2.982l.283-9.831a5.058,5.058,0,0,0-3.835-4.944,26.99,26.99,0,0,0-7.379-.888c-.334,0-1.52,0-1.838.009a.886.886,0,1,1-.04-1.772c.325-.007,1.54-.011,1.882-.01a28.753,28.753,0,0,1,7.869.958,6.819,6.819,0,0,1,5.111,6.709l-.283,9.831a7.754,7.754,0,0,1-1.265,3.884A.885.885,0,0,1,248.266,110.673Z" transform="translate(-186.258 -70.502)" fill="#070f27"/>
    <path id="パス_18205" data-name="パス 18205" d="M217.961,235.238h-2.151a2.91,2.91,0,0,1-2.907-2.907v-.737l-.036-12.906a.886.886,0,1,1,1.772,0l.036,13.648a1.136,1.136,0,0,0,1.135,1.135h2.151a1.136,1.136,0,0,0,1.135-1.135v-.977a.886.886,0,1,1,1.772,0v.977A2.91,2.91,0,0,1,217.961,235.238Z" transform="translate(-168.838 -172.751)" fill="#070f27"/>
    <path id="パス_18206" data-name="パス 18206" d="M243.87,225.6h0a.886.886,0,0,1-.882-.889s0,0,0-.007l.071-14.7a.886.886,0,0,1,1.772.009v.007l-.071,14.7A.886.886,0,0,1,243.87,225.6Z" transform="translate(-192.726 -165.867)" fill="#070f27"/>
    <path id="パス_18207" data-name="パス 18207" d="M248.04,164.385h-2.15a2.91,2.91,0,0,1-2.907-2.907v-.733a.886.886,0,1,1,1.772,0v.733a1.136,1.136,0,0,0,1.135,1.135h2.15a1.136,1.136,0,0,0,1.135-1.135v-.7l.346-31.429a.886.886,0,1,1,1.772.02l-.346,31.419v.693A2.91,2.91,0,0,1,248.04,164.385Z" transform="translate(-192.726 -101.898)" fill="#070f27"/>
    <path id="パス_18208" data-name="パス 18208" d="M39.145,25.925a6.133,6.133,0,1,1,.021,0Zm0-10.491a4.359,4.359,0,0,0,0,8.719v.886l.015-.886a4.359,4.359,0,0,0-.014-8.719Z" transform="translate(-26.186 -10.837)" fill="#070f27"/>
    <path id="パス_18209" data-name="パス 18209" d="M2.3,110.673a.885.885,0,0,1-.744-.4A7.744,7.744,0,0,1,.288,106.4L0,96.541a6.816,6.816,0,0,1,5.112-6.7,28.752,28.752,0,0,1,7.869-.958c.343,0,1.558,0,1.883.01a.886.886,0,1,1-.04,1.772c-.317-.007-1.5-.01-1.838-.009a26.989,26.989,0,0,0-7.379.888,5.055,5.055,0,0,0-3.835,4.931l.284,9.857a5.963,5.963,0,0,0,.98,2.969.886.886,0,0,1-.742,1.369Z" transform="translate(0.002 -70.502)" fill="#070f27"/>
    <path id="パス_18210" data-name="パス 18210" d="M64.409,235.238H62.257a2.91,2.91,0,0,1-2.907-2.907v-.977a.886.886,0,1,1,1.772,0v.977a1.136,1.136,0,0,0,1.135,1.135h2.152a1.136,1.136,0,0,0,1.135-1.135v-.737l.036-12.911a.886.886,0,0,1,1.772,0L67.315,231.6v.735A2.91,2.91,0,0,1,64.409,235.238Z" transform="translate(-47.075 -172.751)" fill="#070f27"/>
    <path id="パス_18211" data-name="パス 18211" d="M59.964,225.6a.886.886,0,0,1-.886-.882l-.071-14.708A.886.886,0,0,1,60.779,210l.071,14.7s0,0,0,.007a.886.886,0,0,1-.882.889Z" transform="translate(-46.802 -165.867)" fill="#070f27"/>
    <path id="パス_18212" data-name="パス 18212" d="M33.146,164.385H31a2.91,2.91,0,0,1-2.907-2.907v-.7l-.346-31.409a.886.886,0,1,1,1.772-.02l.346,31.419v.713A1.136,1.136,0,0,0,31,162.613h2.15a1.136,1.136,0,0,0,1.135-1.135v-.733a.886.886,0,1,1,1.772,0v.733A2.91,2.91,0,0,1,33.146,164.385Z" transform="translate(-22.004 -101.898)" fill="#070f27"/>
    <path id="パス_18213" data-name="パス 18213" d="M128.107,14.315h-.025a7.158,7.158,0,1,1,.025,0Zm.018-12.543a5.386,5.386,0,0,0-.037,10.771l.019.886v-.886a5.386,5.386,0,0,0,.018-10.771Z" transform="translate(-95.933 0)" fill="#070f27"/>
    <path id="パス_18214" data-name="パス 18214" d="M108.04,109.454a.886.886,0,1,1,0-1.772,4.664,4.664,0,0,0,4.332-2.857,6.473,6.473,0,0,0,.5-2.209l.475-10.9a5.694,5.694,0,0,0-4.316-5.556,29.517,29.517,0,0,0-8.039-.987,29.532,29.532,0,0,0-8.054.943,5.709,5.709,0,0,0-4.357,5.528l.385,10.91a6.429,6.429,0,0,0,.377,1.946,4.764,4.764,0,0,0,4.535,3.113.886.886,0,1,1,.011,1.772,6.54,6.54,0,0,1-6.214-4.287,8.2,8.2,0,0,1-.48-2.482L86.807,91.7a7.474,7.474,0,0,1,5.643-7.295,31.276,31.276,0,0,1,8.543-1.011,31.26,31.26,0,0,1,8.528,1.057,7.458,7.458,0,0,1,5.592,7.335l-.475,10.9a8.239,8.239,0,0,1-.631,2.813A6.431,6.431,0,0,1,108.04,109.454Z" transform="translate(-68.849 -66.148)" fill="#070f27"/>
    <path id="パス_18215" data-name="パス 18215" d="M121.912,166.669h-1.9a3.37,3.37,0,0,1-3.366-3.366v-.575l-.1-34.8a.886.886,0,0,1,1.772-.005l.1,34.8v.577a1.6,1.6,0,0,0,1.594,1.594h1.9a1.6,1.6,0,0,0,1.594-1.594v-.57a.886.886,0,1,1,1.772,0v.57A3.37,3.37,0,0,1,121.912,166.669Z" transform="translate(-92.441 -100.765)" fill="#070f27"/>
    <path id="パス_18216" data-name="パス 18216" d="M151.074,234.623h0a.886.886,0,0,1-.882-.889s0,0,0-.007l.079-16.283a.886.886,0,0,1,1.772.009v.008l-.079,16.282A.886.886,0,0,1,151.074,234.623Z" transform="translate(-119.124 -171.769)" fill="#070f27"/>
    <path id="パス_18217" data-name="パス 18217" d="M155.452,166.826h-1.9a3.37,3.37,0,0,1-3.366-3.366v-.57a.886.886,0,0,1,1.772,0v.57a1.6,1.6,0,0,0,1.594,1.594h1.9a1.6,1.6,0,0,0,1.594-1.594v-.537l.384-34.808a.886.886,0,0,1,1.772.02l-.383,34.8v.527A3.37,3.37,0,0,1,155.452,166.826Z" transform="translate(-119.124 -100.922)" fill="#070f27"/>
  </g>
</svg>
