<svg xmlns="http://www.w3.org/2000/svg" xmlns:xlink="http://www.w3.org/1999/xlink" width="65" height="65" viewBox="0 0 65 65">
  <defs>
    <clipPath id="clip-path">
      <rect id="Rectangle_6610" data-name="Rectangle 6610" width="55.664" height="55.664" fill="#070f27" stroke="#060f27" stroke-width="0.2"/>
    </clipPath>
  </defs>
  <g id="Group_14123" data-name="Group 14123" transform="translate(-319 -1371.504)">
    <rect id="Rectangle_6574" data-name="Rectangle 6574" width="65" height="65" transform="translate(319 1371.504)" fill="none"/>
    <g id="Group_13801" data-name="Group 13801" transform="translate(323.901 1376.469)">
      <g id="Group_13801-2" data-name="Group 13801" clip-path="url(#clip-path)">
        <path id="Path_17980" data-name="Path 17980" d="M67.527,55.664H35.89a.734.734,0,0,1-.734-.734V.734A.734.734,0,0,1,35.89,0H67.527a.734.734,0,0,1,.734.734v54.2a.734.734,0,0,1-.734.734M36.624,54.2H66.793V1.468H36.624Z" transform="translate(-23.888 0)" fill="#060f27" stroke="#060f27" stroke-width="0.2"/>
        <path id="Path_17981" data-name="Path 17981" d="M54.568,55.338H50.052a.734.734,0,0,1-.734-.734V50.088a.734.734,0,0,1,.734-.734h4.516a.734.734,0,0,1,.734.734V54.6a.734.734,0,0,1-.734.734M50.786,53.87h3.048V50.821H50.786Z" transform="translate(-33.511 -33.535)" fill="#060f27" stroke="#060f27" stroke-width="0.2"/>
        <path id="Path_17982" data-name="Path 17982" d="M110.932,55.338h-4.516a.734.734,0,0,1-.734-.734V50.088a.734.734,0,0,1,.734-.734h4.516a.734.734,0,0,1,.734.734V54.6a.734.734,0,0,1-.734.734M107.15,53.87H110.2V50.821H107.15Z" transform="translate(-71.809 -33.535)" fill="#060f27" stroke="#060f27" stroke-width="0.2"/>
        <path id="Path_17983" data-name="Path 17983" d="M82.75,55.338H78.234A.734.734,0,0,1,77.5,54.6V50.088a.734.734,0,0,1,.734-.734H82.75a.734.734,0,0,1,.734.734V54.6a.734.734,0,0,1-.734.734M78.968,53.87h3.048V50.821H78.968Z" transform="translate(-52.66 -33.535)" fill="#060f27" stroke="#060f27" stroke-width="0.2"/>
        <path id="Path_17984" data-name="Path 17984" d="M54.568,23.657H50.052a.734.734,0,0,1-.734-.734v-4.5a.734.734,0,0,1,.734-.734h4.516a.734.734,0,0,1,.734.734v4.5a.734.734,0,0,1-.734.734m-3.782-1.468h3.048V19.152H50.786Z" transform="translate(-33.511 -12.016)" fill="#060f27" stroke="#060f27" stroke-width="0.2"/>
        <path id="Path_17985" data-name="Path 17985" d="M110.932,23.657h-4.516a.734.734,0,0,1-.734-.734v-4.5a.734.734,0,0,1,.734-.734h4.516a.734.734,0,0,1,.734.734v4.5a.734.734,0,0,1-.734.734m-3.782-1.468H110.2V19.152H107.15Z" transform="translate(-71.809 -12.016)" fill="#060f27" stroke="#060f27" stroke-width="0.2"/>
        <path id="Path_17986" data-name="Path 17986" d="M82.75,23.657H78.234a.734.734,0,0,1-.734-.734v-4.5a.734.734,0,0,1,.734-.734H82.75a.734.734,0,0,1,.734.734v4.5a.734.734,0,0,1-.734.734m-3.782-1.468h3.048V19.152H78.968Z" transform="translate(-52.66 -12.016)" fill="#060f27" stroke="#060f27" stroke-width="0.2"/>
        <path id="Path_17987" data-name="Path 17987" d="M54.568,87.042H50.052a.734.734,0,0,1-.734-.734V81.792a.734.734,0,0,1,.734-.734h4.516a.734.734,0,0,1,.734.734v4.517a.734.734,0,0,1-.734.734m-3.782-1.468h3.048V82.526H50.786Z" transform="translate(-33.511 -55.078)" fill="#060f27" stroke="#060f27" stroke-width="0.2"/>
        <path id="Path_17988" data-name="Path 17988" d="M14.893,88.981H11.3a.734.734,0,0,1-.734-.734v-3.6a.734.734,0,0,1,.734-.734h3.591a.734.734,0,0,1,.734.734v3.6a.734.734,0,0,1-.734.734m-2.857-1.468h2.122V85.379H12.036Z" transform="translate(-7.181 -57.016)" fill="#060f27" stroke="#060f27" stroke-width="0.2"/>
        <path id="Path_17989" data-name="Path 17989" d="M14.822,121.1h-3.59a.734.734,0,0,1-.734-.734v-3.59a.734.734,0,0,1,.734-.734h3.59a.734.734,0,0,1,.734.734v3.59a.734.734,0,0,1-.734.734m-2.856-1.468h2.122v-2.123H11.966Z" transform="translate(-7.133 -78.847)" fill="#060f27" stroke="#060f27" stroke-width="0.2"/>
        <path id="Path_17990" data-name="Path 17990" d="M151.644,88.981h-3.59a.734.734,0,0,1-.734-.734v-3.6a.734.734,0,0,1,.734-.734h3.59a.734.734,0,0,1,.734.734v3.6a.734.734,0,0,1-.734.734m-2.856-1.468h2.122V85.379h-2.122Z" transform="translate(-100.102 -57.016)" fill="#060f27" stroke="#060f27" stroke-width="0.2"/>
        <path id="Path_17991" data-name="Path 17991" d="M151.574,121.1h-3.59a.734.734,0,0,1-.734-.734v-3.59a.734.734,0,0,1,.734-.734h3.59a.734.734,0,0,1,.734.734v3.59a.734.734,0,0,1-.734.734m-2.856-1.468h2.122v-2.123h-2.122Z" transform="translate(-100.054 -78.847)" fill="#060f27" stroke="#060f27" stroke-width="0.2"/>
        <path id="Path_17992" data-name="Path 17992" d="M110.932,87.042h-4.516a.734.734,0,0,1-.734-.734V81.792a.734.734,0,0,1,.734-.734h4.516a.734.734,0,0,1,.734.734v4.517a.734.734,0,0,1-.734.734m-3.782-1.468H110.2V82.526H107.15Z" transform="translate(-71.809 -55.078)" fill="#060f27" stroke="#060f27" stroke-width="0.2"/>
        <path id="Path_17993" data-name="Path 17993" d="M82.75,87.042H78.234a.734.734,0,0,1-.734-.734V81.792a.734.734,0,0,1,.734-.734H82.75a.734.734,0,0,1,.734.734v4.517a.734.734,0,0,1-.734.734m-3.782-1.468h3.048V82.526H78.968Z" transform="translate(-52.66 -55.078)" fill="#060f27" stroke="#060f27" stroke-width="0.2"/>
        <path id="Path_17994" data-name="Path 17994" d="M54.568,118.711H50.052a.734.734,0,0,1-.734-.734v-4.516a.734.734,0,0,1,.734-.734h4.516a.734.734,0,0,1,.734.734v4.516a.734.734,0,0,1-.734.734m-3.782-1.468h3.048v-3.049H50.786Z" transform="translate(-33.511 -76.596)" fill="#060f27" stroke="#060f27" stroke-width="0.2"/>
        <path id="Path_17995" data-name="Path 17995" d="M110.932,118.711h-4.516a.734.734,0,0,1-.734-.734v-4.516a.734.734,0,0,1,.734-.734h4.516a.734.734,0,0,1,.734.734v4.516a.734.734,0,0,1-.734.734m-3.782-1.468H110.2v-3.049H107.15Z" transform="translate(-71.809 -76.596)" fill="#060f27" stroke="#060f27" stroke-width="0.2"/>
        <path id="Path_17996" data-name="Path 17996" d="M82.75,118.711H78.234a.734.734,0,0,1-.734-.734v-4.516a.734.734,0,0,1,.734-.734H82.75a.734.734,0,0,1,.734.734v4.516a.734.734,0,0,1-.734.734m-3.782-1.468h3.048v-3.049H78.968Z" transform="translate(-52.66 -76.596)" fill="#060f27" stroke="#060f27" stroke-width="0.2"/>
        <path id="Path_17997" data-name="Path 17997" d="M80.221,151.409a.734.734,0,0,1-.734-.734v-8.3H71.922v8.3a.734.734,0,0,1-1.468,0v-9.033a.734.734,0,0,1,.734-.734h9.033a.734.734,0,0,1,.734.734v9.033a.734.734,0,0,1-.734.734" transform="translate(-47.872 -95.746)" fill="#060f27" stroke="#060f27" stroke-width="0.2"/>
        <path id="Path_17998" data-name="Path 17998" d="M9.021,101.167H.734A.734.734,0,0,1,0,100.433V67.7a.734.734,0,0,1,.734-.734H9.021a.734.734,0,1,1,0,1.468H1.468V99.7H9.021a.734.734,0,1,1,0,1.468" transform="translate(0 -45.503)" fill="#060f27" stroke="#060f27" stroke-width="0.2"/>
        <path id="Path_17999" data-name="Path 17999" d="M152.328,101.167h-8.254a.734.734,0,1,1,0-1.468h7.52V68.435h-7.52a.734.734,0,1,1,0-1.468h8.254a.734.734,0,0,1,.734.734v32.733a.734.734,0,0,1-.734.734" transform="translate(-97.397 -45.503)" fill="#060f27" stroke="#060f27" stroke-width="0.2"/>
      </g>
    </g>
  </g>
</svg>
