<svg id="Group_14119" data-name="Group 14119" xmlns="http://www.w3.org/2000/svg" xmlns:xlink="http://www.w3.org/1999/xlink" width="69.091" height="64.156" viewBox="0 0 69.091 64.156">
  <defs>
    <clipPath id="clip-path">
      <rect id="Rectangle_6733" data-name="Rectangle 6733" width="69.091" height="64.156" fill="none"/>
    </clipPath>
  </defs>
  <path id="Union_9" data-name="Union 9" d="M3.027,37.23a.859.859,0,1,1,0-1.718H22.408a.859.859,0,1,1,0,1.718Zm8.739-8.884a.859.859,0,1,1,0-1.717H22.408a.859.859,0,1,1,0,1.717Zm-.93-8.883a.859.859,0,0,1,0-1.718H22.408a.859.859,0,1,1,0,1.718Zm.994-8.884a.859.859,0,0,1,0-1.717H22.408a.859.859,0,1,1,0,1.717ZM.859,1.718A.859.859,0,1,1,.859,0H22.408a.859.859,0,0,1,0,1.718Z" transform="translate(28.772 10.402)" fill="#070f27"/>
  <g id="Group_14118" data-name="Group 14118">
    <g id="Group_14117" data-name="Group 14117" clip-path="url(#clip-path)">
      <path id="Union_8" data-name="Union 8" d="M53.127,64.156H8.863a5.738,5.738,0,0,1-5.732-5.731v-3.98a.859.859,0,0,1,.859-.858H8V48.024a.859.859,0,1,1,1.717,0v5.561H48.06a.867.867,0,0,0,.273,0,.859.859,0,0,1,.859.859v3.98a4.019,4.019,0,0,0,3.949,4.014h.092a4.018,4.018,0,0,0,3.987-4.014V5.936a5.917,5.917,0,0,1,1.764-4.218H15.01A5.3,5.3,0,0,0,9.721,7.006v2.66A.859.859,0,0,1,8,9.666V7.006A7.014,7.014,0,0,1,15.01,0H63.842a.854.854,0,0,1,.4.1A5.945,5.945,0,0,1,69.09,5.936v.242a5.942,5.942,0,0,1-5.936,5.936.942.942,0,0,1-.951-.858.785.785,0,0,1,.766-.859,4.266,4.266,0,0,0,4.4-4.218V5.936a4.218,4.218,0,0,0-8.436,0V58.424a5.738,5.738,0,0,1-5.731,5.732ZM4.849,58.424a4.018,4.018,0,0,0,4.014,4.014H49.118a5.714,5.714,0,0,1-1.643-4.014V55.3H4.849Zm13.406-11.5-3.389-.006a2.183,2.183,0,0,1-2.139-1.775l-.237-1.251a5.019,5.019,0,0,0-2.456-3.4,5.256,5.256,0,0,0-2.667-.752A4.829,4.829,0,0,0,5.784,40l-1.2.416a2.179,2.179,0,0,1-2.6-.974L.289,36.511a2.184,2.184,0,0,1,.469-2.74l.965-.83A5.038,5.038,0,0,0,3.441,29.1a5.072,5.072,0,0,0-1.7-3.912l-.962-.834a2.183,2.183,0,0,1-.458-2.742l1.7-2.929a2.179,2.179,0,0,1,2.607-.964l1.2.421a5.084,5.084,0,0,0,4.191-.436,5.058,5.058,0,0,0,2.524-3.425l.241-1.25a2.184,2.184,0,0,1,2.141-1.768l3.39,0a2.183,2.183,0,0,1,2.139,1.775l.237,1.251a5.017,5.017,0,0,0,2.457,3.4,5.255,5.255,0,0,0,2.667.752,4.834,4.834,0,0,0,1.585-.265l1.2-.416a2.18,2.18,0,0,1,2.6.973l1.688,2.935a2.183,2.183,0,0,1-.468,2.74l-.965.831a5.247,5.247,0,0,0-.013,7.753l.963.834a2.184,2.184,0,0,1,.459,2.742l-1.7,2.93a2.188,2.188,0,0,1-1.887,1.088,2.24,2.24,0,0,1-.72-.123l-1.2-.42a5.247,5.247,0,0,0-6.721,3.864L20.4,45.158a2.184,2.184,0,0,1-2.141,1.767Zm-7.419-7.954a6.772,6.772,0,0,1,3.342,4.6l.236,1.251a.463.463,0,0,0,.454.377l3.387.006,0,.859,0-.859a.463.463,0,0,0,.455-.376l.241-1.25a6.734,6.734,0,0,1,3.3-4.558,6.967,6.967,0,0,1,3.5-.969,6.545,6.545,0,0,1,2.168.367l1.2.421c.318.026.472-.063.554-.2l1.7-2.93a.463.463,0,0,0-.1-.583l-.962-.834a6.963,6.963,0,0,1,.017-10.352l.965-.83a.464.464,0,0,0,.1-.582l-1.688-2.935a.465.465,0,0,0-.4-.232l-1.354.442a6.549,6.549,0,0,1-2.147.359,6.9,6.9,0,0,1-3.468-.949A6.769,6.769,0,0,1,19,14.61l-.237-1.251a.464.464,0,0,0-.454-.377l-3.387,0a.464.464,0,0,0-.455.376l-.241,1.25a6.735,6.735,0,0,1-3.3,4.56,6.968,6.968,0,0,1-3.5.965,6.533,6.533,0,0,1-2.168-.368l-1.2-.421c-.318-.026-.471.062-.554.205L1.8,22.473a.463.463,0,0,0,.1.582l.962.834a6.747,6.747,0,0,1,2.3,5.148,6.786,6.786,0,0,1-2.316,5.2l-.965.83a.464.464,0,0,0-.1.583L3.466,38.59a.465.465,0,0,0,.4.233l1.354-.442a6.542,6.542,0,0,1,2.146-.359A6.9,6.9,0,0,1,10.837,38.971ZM16.5,36.037A6.946,6.946,0,0,1,9.647,29a6.945,6.945,0,0,1,11.918-4.76,6.9,6.9,0,0,1,1.972,4.937,6.971,6.971,0,0,1-6.943,6.857Zm-5.139-7.011a5.229,5.229,0,0,0,5.161,5.294l.068.859v-.858a5.247,5.247,0,0,0,5.226-5.162,5.227,5.227,0,0,0-5.161-5.294h0A5.261,5.261,0,0,0,11.364,29.026Z" transform="translate(0.001 0)" fill="#070f27"/>
    </g>
  </g>
</svg>
