<svg xmlns="http://www.w3.org/2000/svg" xmlns:xlink="http://www.w3.org/1999/xlink" width="69.181" height="12.407" viewBox="0 0 69.181 12.407">
  <defs>
    <linearGradient id="linear-gradient" x1="-0.222" y1="-0.111" x2="1" y2="1" gradientUnits="objectBoundingBox">
      <stop offset="0" stop-color="#32859a"/>
      <stop offset="0.511" stop-color="#5f86d3"/>
      <stop offset="1" stop-color="#54b2db"/>
    </linearGradient>
  </defs>
  <path id="Path_18105" data-name="Path 18105" d="M0-6.935,3.733-18.21h2.05L9.516-6.935H7.634L5.813-13.054q-.275-.918-.535-1.859T4.758-16.8H4.7q-.245.964-.513,1.9t-.543,1.851L1.821-6.935Zm2.111-3.2V-11.54H7.374v1.407ZM15.528-6.721a2.742,2.742,0,0,1-1.178-.291,4.225,4.225,0,0,1-1.132-.8h-.061L13-6.935H11.612V-19.128h1.759V-15.9l-.061,1.438a5.015,5.015,0,0,1,1.2-.8,3.047,3.047,0,0,1,1.308-.306,3.047,3.047,0,0,1,1.813.528,3.288,3.288,0,0,1,1.132,1.492,6.013,6.013,0,0,1,.39,2.264,5.456,5.456,0,0,1-.513,2.463A3.859,3.859,0,0,1,17.3-7.256,3.2,3.2,0,0,1,15.528-6.721ZM15.192-8.2a1.808,1.808,0,0,0,1.094-.352,2.359,2.359,0,0,0,.765-1.033,4.326,4.326,0,0,0,.283-1.66,4.949,4.949,0,0,0-.207-1.522,2.016,2.016,0,0,0-.635-.979,1.753,1.753,0,0,0-1.132-.344,2.12,2.12,0,0,0-.979.252,4.167,4.167,0,0,0-1.01.773v4.115a2.956,2.956,0,0,0,.956.581A2.656,2.656,0,0,0,15.192-8.2ZM25.38-6.721a3.825,3.825,0,0,1-1.951-.528,3.96,3.96,0,0,1-1.469-1.515,4.758,4.758,0,0,1-.558-2.379,4.792,4.792,0,0,1,.558-2.394,3.9,3.9,0,0,1,1.469-1.507,3.868,3.868,0,0,1,1.951-.52,3.837,3.837,0,0,1,1.484.3,3.773,3.773,0,0,1,1.27.864,4.111,4.111,0,0,1,.872,1.385,5.1,5.1,0,0,1,.321,1.874,4.758,4.758,0,0,1-.558,2.379,4,4,0,0,1-1.453,1.515A3.744,3.744,0,0,1,25.38-6.721Zm0-1.469a1.827,1.827,0,0,0,1.14-.367,2.322,2.322,0,0,0,.742-1.033,4.252,4.252,0,0,0,.26-1.553,4.252,4.252,0,0,0-.26-1.553,2.376,2.376,0,0,0-.742-1.04,1.8,1.8,0,0,0-1.14-.375,1.825,1.825,0,0,0-1.155.375,2.376,2.376,0,0,0-.742,1.04,4.252,4.252,0,0,0-.26,1.553,4.252,4.252,0,0,0,.26,1.553,2.322,2.322,0,0,0,.742,1.033A1.85,1.85,0,0,0,25.38-8.189Zm9.271,1.469a2.265,2.265,0,0,1-1.974-.872,4.167,4.167,0,0,1-.627-2.463v-5.309h1.775v5.094a2.731,2.731,0,0,0,.337,1.545,1.222,1.222,0,0,0,1.071.474,1.867,1.867,0,0,0,1.04-.3,4.343,4.343,0,0,0,.979-.956v-5.859h1.775v8.43H37.574L37.436-8.2H37.39a5.911,5.911,0,0,1-1.224,1.071A2.739,2.739,0,0,1,34.651-6.721Zm10.6,0A2.669,2.669,0,0,1,43.747-7.1a2.081,2.081,0,0,1-.8-1.04A4.491,4.491,0,0,1,42.7-9.689v-4.253H41.475v-1.316l1.316-.107.2-2.325h1.469v2.325h2.188v1.423H44.458v4.268a1.889,1.889,0,0,0,.291,1.14,1.105,1.105,0,0,0,.949.39,1.9,1.9,0,0,0,.459-.061,3.034,3.034,0,0,0,.428-.138l.321,1.3q-.337.107-.757.214A3.617,3.617,0,0,1,45.253-6.721Zm10.678,0a2.266,2.266,0,0,1-1.974-.872,4.167,4.167,0,0,1-.627-2.463v-5.309h1.775v5.094a2.731,2.731,0,0,0,.337,1.545,1.222,1.222,0,0,0,1.071.474,1.867,1.867,0,0,0,1.04-.3,4.343,4.343,0,0,0,.979-.956v-5.859h1.775v8.43H58.854L58.716-8.2H58.67a5.911,5.911,0,0,1-1.224,1.071A2.739,2.739,0,0,1,55.932-6.721Zm10.051,0a4.6,4.6,0,0,1-1.706-.337A5.406,5.406,0,0,1,62.816-7.9l.841-1.147a5.516,5.516,0,0,0,1.124.711,2.912,2.912,0,0,0,1.247.268A1.6,1.6,0,0,0,67.138-8.4a1.047,1.047,0,0,0,.36-.8.86.86,0,0,0-.268-.643,2.381,2.381,0,0,0-.7-.451q-.428-.191-.887-.36a8.689,8.689,0,0,1-1.109-.513,2.779,2.779,0,0,1-.895-.765,1.889,1.889,0,0,1-.352-1.17,2.271,2.271,0,0,1,.36-1.27,2.463,2.463,0,0,1,1.033-.872,3.7,3.7,0,0,1,1.606-.321,3.952,3.952,0,0,1,1.538.291,4.53,4.53,0,0,1,1.186.7L68.2-13.483a5.13,5.13,0,0,0-.9-.528,2.323,2.323,0,0,0-.964-.207,1.536,1.536,0,0,0-1.04.3.951.951,0,0,0-.337.742.762.762,0,0,0,.245.581,2.143,2.143,0,0,0,.65.4q.405.168.864.352a8.613,8.613,0,0,1,.88.36,3.946,3.946,0,0,1,.788.49,2.275,2.275,0,0,1,.574.688,2.065,2.065,0,0,1,.222,1,2.435,2.435,0,0,1-.367,1.3,2.517,2.517,0,0,1-1.071.941A3.991,3.991,0,0,1,65.983-6.721Z" transform="translate(0 19.128)" fill="url(#linear-gradient)"/>
</svg>
