<svg xmlns="http://www.w3.org/2000/svg" xmlns:xlink="http://www.w3.org/1999/xlink" width="108.528" height="19.464" viewBox="0 0 108.528 19.464">
  <defs>
    <linearGradient id="linear-gradient" x1="0.041" y1="0.216" x2="1" y2="1" gradientUnits="objectBoundingBox">
      <stop offset="0" stop-color="#32859a"/>
      <stop offset="0.511" stop-color="#5f86d3"/>
      <stop offset="1" stop-color="#54b2db"/>
    </linearGradient>
  </defs>
  <path id="Path_17900" data-name="Path 17900" d="M0,0,5.856-17.688H9.072L14.928,0H11.976L9.12-9.6q-.432-1.44-.84-2.916T7.464-15.48h-.1q-.384,1.512-.8,2.976T5.712-9.6L2.856,0ZM3.312-5.016V-7.224h8.256v2.208ZM24.36.336A4.3,4.3,0,0,1,22.512-.12a6.629,6.629,0,0,1-1.776-1.248h-.1L20.4,0H18.216V-19.128h2.76v5.064l-.1,2.256a7.867,7.867,0,0,1,1.884-1.248,4.78,4.78,0,0,1,2.052-.48,4.779,4.779,0,0,1,2.844.828,5.158,5.158,0,0,1,1.776,2.34,9.432,9.432,0,0,1,.612,3.552,8.559,8.559,0,0,1-.8,3.864A6.055,6.055,0,0,1,27.144-.5,5.025,5.025,0,0,1,24.36.336Zm-.528-2.328a2.837,2.837,0,0,0,1.716-.552,3.7,3.7,0,0,0,1.2-1.62,6.786,6.786,0,0,0,.444-2.6,7.764,7.764,0,0,0-.324-2.388,3.162,3.162,0,0,0-1-1.536,2.751,2.751,0,0,0-1.776-.54,3.326,3.326,0,0,0-1.536.4,6.537,6.537,0,0,0-1.584,1.212v6.456a4.637,4.637,0,0,0,1.5.912A4.167,4.167,0,0,0,23.832-1.992ZM39.816.336a6,6,0,0,1-3.06-.828,6.212,6.212,0,0,1-2.3-2.376A7.465,7.465,0,0,1,33.576-6.6a7.517,7.517,0,0,1,.876-3.756,6.123,6.123,0,0,1,2.3-2.364,6.068,6.068,0,0,1,3.06-.816,6.019,6.019,0,0,1,2.328.468,5.918,5.918,0,0,1,1.992,1.356A6.448,6.448,0,0,1,45.5-9.54a8,8,0,0,1,.5,2.94,7.465,7.465,0,0,1-.876,3.732,6.272,6.272,0,0,1-2.28,2.376A5.873,5.873,0,0,1,39.816.336Zm0-2.3A2.866,2.866,0,0,0,41.6-2.544a3.643,3.643,0,0,0,1.164-1.62A6.67,6.67,0,0,0,43.176-6.6a6.67,6.67,0,0,0-.408-2.436A3.728,3.728,0,0,0,41.6-10.668a2.827,2.827,0,0,0-1.788-.588A2.863,2.863,0,0,0,38-10.668,3.728,3.728,0,0,0,36.84-9.036,6.67,6.67,0,0,0,36.432-6.6a6.67,6.67,0,0,0,.408,2.436A3.643,3.643,0,0,0,38-2.544,2.9,2.9,0,0,0,39.816-1.968ZM54.36.336a3.554,3.554,0,0,1-3.1-1.368A6.537,6.537,0,0,1,50.28-4.9v-8.328h2.784v7.992a4.285,4.285,0,0,0,.528,2.424,1.917,1.917,0,0,0,1.68.744A2.929,2.929,0,0,0,56.9-2.532a6.814,6.814,0,0,0,1.536-1.5v-9.192h2.784V0h-2.28l-.216-1.992h-.072a9.273,9.273,0,0,1-1.92,1.68A4.3,4.3,0,0,1,54.36.336Zm16.632,0a4.186,4.186,0,0,1-2.364-.588,3.264,3.264,0,0,1-1.26-1.632,7.046,7.046,0,0,1-.384-2.436v-6.672h-1.92v-2.064l2.064-.168.312-3.648h2.3v3.648h3.432v2.232H69.744v6.7A2.963,2.963,0,0,0,70.2-2.508a1.734,1.734,0,0,0,1.488.612,2.976,2.976,0,0,0,.72-.1,4.759,4.759,0,0,0,.672-.216l.5,2.04Q73.056,0,72.4.168A5.674,5.674,0,0,1,70.992.336Zm16.752,0a3.554,3.554,0,0,1-3.1-1.368A6.537,6.537,0,0,1,83.664-4.9v-8.328h2.784v7.992a4.285,4.285,0,0,0,.528,2.424,1.917,1.917,0,0,0,1.68.744,2.929,2.929,0,0,0,1.632-.468,6.814,6.814,0,0,0,1.536-1.5v-9.192h2.784V0h-2.28l-.216-1.992H92.04a9.273,9.273,0,0,1-1.92,1.68A4.3,4.3,0,0,1,87.744.336Zm15.768,0a7.212,7.212,0,0,1-2.676-.528,8.481,8.481,0,0,1-2.292-1.32l1.32-1.8A8.653,8.653,0,0,0,101.628-2.2a4.568,4.568,0,0,0,1.956.42,2.513,2.513,0,0,0,1.74-.516,1.643,1.643,0,0,0,.564-1.26,1.349,1.349,0,0,0-.42-1.008,3.735,3.735,0,0,0-1.092-.708q-.672-.3-1.392-.564a13.631,13.631,0,0,1-1.74-.8,4.36,4.36,0,0,1-1.4-1.2,2.963,2.963,0,0,1-.552-1.836,3.562,3.562,0,0,1,.564-1.992,3.864,3.864,0,0,1,1.62-1.368,5.8,5.8,0,0,1,2.52-.5,6.2,6.2,0,0,1,2.412.456,7.107,7.107,0,0,1,1.86,1.1l-1.272,1.7a8.049,8.049,0,0,0-1.416-.828,3.644,3.644,0,0,0-1.512-.324,2.409,2.409,0,0,0-1.632.468,1.492,1.492,0,0,0-.528,1.164,1.2,1.2,0,0,0,.384.912,3.361,3.361,0,0,0,1.02.624q.636.264,1.356.552a13.513,13.513,0,0,1,1.38.564,6.19,6.19,0,0,1,1.236.768,3.569,3.569,0,0,1,.9,1.08,3.24,3.24,0,0,1,.348,1.572,3.82,3.82,0,0,1-.576,2.04A3.948,3.948,0,0,1,106.272-.2,6.261,6.261,0,0,1,103.512.336Z" transform="translate(0 19.128)" fill="url(#linear-gradient)"/>
</svg>
