<svg xmlns="http://www.w3.org/2000/svg" xmlns:xlink="http://www.w3.org/1999/xlink" width="282.614" height="42.519" viewBox="0 0 282.614 42.519">
  <defs>
    <clipPath id="clip-path">
      <rect id="Rectangle_6345" data-name="Rectangle 6345" width="282.614" height="42.519" transform="translate(0 0)" fill="none"/>
    </clipPath>
  </defs>
  <g id="Group_13469" data-name="Group 13469" transform="translate(0 -0.001)">
    <g id="Group_13468" data-name="Group 13468" clip-path="url(#clip-path)">
      <path id="Path_17832" data-name="Path 17832" d="M218.234,29.857H209.49V28.835h5.7v-3.3h-5.7v-.992H216.5V21.164H209.49V18.917h8.637V15.485H211.76l0-.152a.041.041,0,0,0-.02.005,5.238,5.238,0,0,0,.614-1.48l.016-.057h5.338V10.58H207.555V8.739h-5.007V10.58H192.057V13.8h4.936l.019.047c.092.229.185.509.274.778a9.024,9.024,0,0,0,.319.877l.053.11h-5.385c-.046,1.151-.562,12.9-2.7,15.983l3.573,2.066a26.161,26.161,0,0,0,2.779-7.326l.024-.107.1.057,2.258,1.355.848-.634.125-.094v1.922h5.08v1.022h-9.385v3.621h23.259ZM199.021,19.022a12.363,12.363,0,0,1-2.689,4.273l-.134.132v-4.51h2.863Zm5.339,5.6v.916H200.3a3.649,3.649,0,0,0,.765-.943l.022-.049h3.274Zm0-5.623v2.17h-1.823l.047-.108a3.933,3.933,0,0,0,.19-.5l-2.465-1.5-.233-.143h4.284Zm2.719-5.1c-.165.648-.223.911-.366,1.544l-.025.113-.014.06h-3.885l-.019-.047c-.322-.773-.431-1.067-.53-1.327l-.125-.334-.039-.1H207.1Z"/>
      <path id="Path_17833" data-name="Path 17833" d="M93.946,29.348H86.393v-.077l.019-4.335v-.077H92.73l-.071-3.847H86.335V17.188h7.333v-3.8H86.491l.088-.121,1.251-1.708a52.53,52.53,0,0,0-6-3.527l-3.069,2.81a36.043,36.043,0,0,1,3.428,2.412l.15.134H74.791v3.8h7.3v3.826l-.081,0-7.13,0v3.851h7.29v.077l0,4.335v.077H74.339v3.719H93.946Z"/>
      <path id="Path_17834" data-name="Path 17834" d="M68.95,33.782l4.244.027V15.4l.009-.017a24.753,24.753,0,0,0,2.632-6.644l-4.359-.234A47.067,47.067,0,0,1,64.347,20.4l3.009,2.839.185-.153a5.838,5.838,0,0,0,1.291-1.37l.144-.215v.259Z"/>
      <path id="Path_17835" data-name="Path 17835" d="M138.79,33.949h4.462V20.08l.133.134a40.378,40.378,0,0,0,9.637,7.062l3.084-3.261a55.1,55.1,0,0,1-9.36-6.619l-3.374,2.015-.12.072V17.94l.014-.02c.026-.032,2.4-3.229,2.686-3.821l.023-.046h9.341V10.145H127.347v3.908h12.865l-.1.123c-2.556,3.332-7.312,7.087-13.752,10.858l3.284,2.862a36.764,36.764,0,0,0,9.008-6.777l.135-.135V33.949Z"/>
      <path id="Path_17836" data-name="Path 17836" d="M187.731,13.543h-5.077V8.721H178.6v4.718h-2.8v3.63h2.45l.007.069A22.41,22.41,0,0,1,177.5,23.7c-.421,1.74-1.34,4.875-2.775,6.34l-.015.016-.022,0a33.128,33.128,0,0,1-4.884.411h-.078V29.5h4.946l.049-2.75h-5V25.672h5.183V16.859h-5.183v-.606l.078-.056h5.114l.042-2.651h-5.216l-.016-.735a55.46,55.46,0,0,0,5.6-.926l-2.013-3.176a142.776,142.776,0,0,1-14.88,1.049l.8,2.822c.151.025.306.053.473.083.9.173,4.83.313,4.83.313l-.034.57h-6.029V16.2h5.965l.078.056v.606h-5.314v8.813h5.314v1.077h-5.264V29.5h5.269l-.007.082-.084.868-.006.067-.069,0-1.824.072c-1.533.066-3.419.148-4.115.142l.916,2.9,2.2-.073c2.144-.069,5.084-.162,5.8-.217a69.769,69.769,0,0,0,7.731-.679l.031-.007.029.017,2.454,1.549a20.867,20.867,0,0,0,1.959-3.263l.6-1.122s.012-.02.025-.045h0a32.129,32.129,0,0,0,1.5-4.469,40.914,40.914,0,0,0,.987-7.981l0-.073h.674l0,.074a78.973,78.973,0,0,1-.316,11.039c-.207,1.091-.355,1.569-.92,1.568l-1.829-.149.021.036,2.076,3.855a3.891,3.891,0,0,0,3.058-.758c1.481-1.191,1.876-3.543,1.993-6.994.093-2.68.078-6.924.208-9.73.056-1.208.1-2.175.106-2.673m-18,6.774v-1.2h1.726v1.275h-1.726Zm0,3.329V22.493h1.726v1.23h-1.726ZM164.52,22.57v1.153h-1.5v-1.23h1.5Zm0-3.375v1.2h-1.5V19.117h1.5Z"/>
      <path id="Path_17837" data-name="Path 17837" d="M248.382,34.015,250.21,31l-.975-.8a12.719,12.719,0,0,1-3.144-3.1l-.025-.042.027-.04a34.483,34.483,0,0,0,4.4-8.89l-2.151-2.65h-8.282V12.932h9.317V9.657H235.4v9.438a24.2,24.2,0,0,1-2.627,9.342l-.053.082-.069-.066a7,7,0,0,1-1.533-2.118l-.057-.112h.127l2.124.006V9.657H222.447V26.229h1.187l-.031.1a17.358,17.358,0,0,1-2.944,5.367L224,33.82c1.406-1.589,3.238-4.365,3.489-5.548l-2.236-1.911-.157-.132H230.2l-.169.135-2.355,1.9,2.378,3.509,1.767-1.133.245-.158-.131.257-.491.959,3.248,1.959c1.7-2.085,4.187-8.258,4.485-10.631l.151-.016a12.541,12.541,0,0,0,1.42,2.8c.162.253.331.513.51.817l.023.034-.019.037a13.764,13.764,0,0,1-3.931,4.472l2.761,2.4a16.779,16.779,0,0,0,3.86-3.429l.061-.071.058.071a18.891,18.891,0,0,0,4.31,3.877M229.8,21.547v1.919h-3.872V21.471H229.8Zm0-4.314v1.9h-3.872V17.157H229.8Zm0-4.483v1.765h-3.872V12.673H229.8Zm14,10.08-.052.043-.053-.043c-1.214-1.033-1.282-3.628-1.284-3.738l0-.079h3.254l-.006.08A6.572,6.572,0,0,1,243.8,22.83"/>
      <path id="Path_17838" data-name="Path 17838" d="M279.51,27.423c-.763,1.654-1.245,2.434-2.258,2.434h-2.668a1.11,1.11,0,0,1-.792-.374,2.077,2.077,0,0,1-.546-1.495V22.9h-4.373v8.163c.189,1.368,1.588,2.234,2.893,2.488h6.673c2.5,0,4.013-2.569,4.175-4.045Z"/>
      <path id="Path_17839" data-name="Path 17839" d="M263.693,30.573a9.793,9.793,0,0,0,1.919-7.671h-4.041c-.084,4.8-2.459,7.434-7.26,8.038l1.884,2.951a10.455,10.455,0,0,0,7.5-3.318"/>
      <path id="Path_17840" data-name="Path 17840" d="M269.186,9.174h-4.574v1.5H253.256V13.8h11.356v1.156h-8.635v2.888h22.616V14.953h-9.407V13.8h12.543V10.678H269.186v-1.5Z"/>
      <path id="Path_17841" data-name="Path 17841" d="M276.185,25.3H281.1V19.016H253.569V25.1h4.582V21.985h18.034V25.3Z"/>
      <path id="Path_17842" data-name="Path 17842" d="M124.961,16.494V12.762H110.14l.032-.1a11.706,11.706,0,0,0,.757-3.891l-4.5.006a16.982,16.982,0,0,1-.839,3.933l-.019.052H96.221V16.45h8.143l-.033.1c-1.382,4.192-3.831,8.274-7.7,12.837l3.839,2.173a45.547,45.547,0,0,0,5.923-8.482l.059-.109.074.1a27.7,27.7,0,0,0,3.741,4l.076.068-.086.051a32.019,32.019,0,0,1-7.775,3.7l2.917,2.8a21.6,21.6,0,0,0,8.4-3.752l.047-.03.044.031a35.058,35.058,0,0,0,7.734,4.151l2.872-3.053a39.453,39.453,0,0,1-7.07-3.749l-.085-.055.076-.066a23.458,23.458,0,0,0,5.745-6.791l-2.293-2.14H108.548l.044-.1c.115-.269.192-.5.275-.75s.169-.513.3-.834l.018-.049h15.774Zm-13.848,5.332h5.714l-.087.119a16.092,16.092,0,0,1-2.806,2.645l-.051.039-.049-.04a31.389,31.389,0,0,1-2.778-2.636l-.119-.127Z"/>
      <path id="Path_17843" data-name="Path 17843" d="M56.512,19.339,46.27,11.659l-2.561,1.919-5.12-3.84,2.56-1.921L30.907.136l-2.561,1.92L25.785.136,15.545,7.817,18.1,9.738l-5.122,3.84-2.56-1.919L.181,19.339l2.56,1.921L.181,23.181l10.242,7.68,2.56-1.919L18.1,32.781,15.545,34.7l10.24,7.682,2.561-1.922,2.561,1.922L41.149,34.7l-2.56-1.921,5.12-3.839,2.561,1.919,10.242-7.68-2.56-1.921ZM28.346,25.1l-5.12-3.842,5.12-3.842,5.122,3.842Z" fill="#ffd900"/>
      <path id="Path_17844" data-name="Path 17844" d="M25.785,42.52l-.064-.049L15.364,34.7l2.56-1.921-4.942-3.7L10.423,31,0,23.181,2.56,21.26,0,19.339l10.423-7.815,2.559,1.919,4.942-3.7-2.56-1.921L25.785,0l2.56,1.921L30.907,0l.065.049L41.329,7.817l-2.56,1.921,4.94,3.7,2.56-1.919.066.048,10.358,7.767-2.56,1.921,2.56,1.921L46.269,31l-2.56-1.92-4.94,3.7,2.56,1.921L30.907,42.52,28.345,40.6Zm2.56-2.194,2.562,1.922L40.967,34.7l-2.559-1.921,5.3-3.975,2.56,1.92,10.062-7.545-2.56-1.921,2.56-1.921L46.269,11.8l-2.56,1.919-5.3-3.976,2.559-1.921L30.907.272,28.345,2.193,25.785.272,15.724,7.817l2.561,1.921-5.3,3.976L10.423,11.8.361,19.339,2.922,21.26.361,23.181l10.062,7.545,2.559-1.92,5.3,3.975L15.724,34.7l10.061,7.546Zm0-15.088-5.3-3.978,5.3-3.978,5.3,3.978ZM23.406,21.26l4.939,3.706,4.942-3.706-4.942-3.706Z" fill="#ffd900"/>
    </g>
  </g>
</svg>
